%TF.GenerationSoftware,KiCad,Pcbnew,(5.1.4)-1*%
%TF.CreationDate,2019-08-25T21:13:44+02:00*%
%TF.ProjectId,ToF_illumination_icHaus_LED,546f465f-696c-46c7-956d-696e6174696f,1*%
%TF.SameCoordinates,Original*%
%TF.FileFunction,Soldermask,Top*%
%TF.FilePolarity,Negative*%
%FSLAX46Y46*%
G04 Gerber Fmt 4.6, Leading zero omitted, Abs format (unit mm)*
G04 Created by KiCad (PCBNEW (5.1.4)-1) date 2019-08-25 21:13:44*
%MOMM*%
%LPD*%
G04 APERTURE LIST*
%ADD10R,1.877400X1.877400*%
%ADD11R,0.402400X0.852400*%
%ADD12R,0.852400X0.402400*%
%ADD13C,0.652400*%
%ADD14R,1.402400X1.152400*%
%ADD15R,2.652400X1.152400*%
%ADD16R,1.152400X2.652400*%
%ADD17R,0.752400X0.852400*%
%ADD18R,0.852400X1.452400*%
%ADD19C,3.352400*%
%ADD20R,1.152400X1.402400*%
%ADD21R,1.452400X0.852400*%
%ADD22R,0.552400X0.802400*%
%ADD23R,0.952400X1.052400*%
%ADD24R,3.152400X3.152400*%
%ADD25C,3.152400*%
%ADD26R,1.852400X1.852400*%
%ADD27O,1.852400X1.852400*%
%ADD28R,1.122400X1.422400*%
%ADD29R,2.152400X3.952400*%
%ADD30R,2.152400X1.652400*%
%ADD31R,1.752400X1.652400*%
%ADD32R,0.802400X1.652400*%
%ADD33R,1.352400X0.652400*%
G04 APERTURE END LIST*
D10*
X102800000Y-96800000D03*
X102800000Y-95075000D03*
X101075000Y-96800000D03*
X101075000Y-95075000D03*
D11*
X103687500Y-98337500D03*
X103187500Y-98337500D03*
X102687500Y-98337500D03*
X102187500Y-98337500D03*
X101687500Y-98337500D03*
X101187500Y-98337500D03*
X100687500Y-98337500D03*
X100187500Y-98337500D03*
D12*
X99537500Y-97687500D03*
X99537500Y-97187500D03*
X99537500Y-96687500D03*
X99537500Y-96187500D03*
X99537500Y-95687500D03*
X99537500Y-95187500D03*
X99537500Y-94687500D03*
X99537500Y-94187500D03*
D11*
X100187500Y-93537500D03*
X100687500Y-93537500D03*
X101187500Y-93537500D03*
X101687500Y-93537500D03*
X102187500Y-93537500D03*
X102687500Y-93537500D03*
X103187500Y-93537500D03*
X103687500Y-93537500D03*
D12*
X104337500Y-94187500D03*
X104337500Y-94687500D03*
X104337500Y-95187500D03*
X104337500Y-95687500D03*
X104337500Y-96187500D03*
X104337500Y-96687500D03*
X104337500Y-97187500D03*
X104337500Y-97687500D03*
D13*
X101937500Y-96637500D03*
X101937500Y-95237500D03*
X101937500Y-95937500D03*
X101937500Y-94537500D03*
X100537500Y-97337500D03*
X101237500Y-97337500D03*
X103337500Y-97337500D03*
X101937500Y-97337500D03*
X102637500Y-97337500D03*
X103337500Y-96637500D03*
X101237500Y-96637500D03*
X100537500Y-96637500D03*
X102637500Y-96637500D03*
X103337500Y-95237500D03*
X101237500Y-95237500D03*
X100537500Y-95237500D03*
X102637500Y-95237500D03*
X102637500Y-94537500D03*
X103337500Y-94537500D03*
X101237500Y-94537500D03*
X100537500Y-94537500D03*
X103337500Y-95937500D03*
X101237500Y-95937500D03*
X100537500Y-95937500D03*
X102637500Y-95937500D03*
D14*
X99400000Y-88800000D03*
X99400000Y-90800000D03*
X102200000Y-88800000D03*
X102200000Y-90800000D03*
X105000000Y-88850000D03*
X105000000Y-90850000D03*
D15*
X112600000Y-89525000D03*
X112600000Y-92525000D03*
X109800000Y-89525000D03*
X109800000Y-92525000D03*
D16*
X96325000Y-83000000D03*
X93325000Y-83000000D03*
D17*
X97500000Y-99800000D03*
X98900000Y-99800000D03*
X100300000Y-100800000D03*
X101700000Y-100800000D03*
X104500000Y-100800000D03*
X103100000Y-100800000D03*
D18*
X103000000Y-82400000D03*
X101100000Y-82400000D03*
D19*
X124800000Y-119800000D03*
X85200000Y-119800000D03*
X124800000Y-80200000D03*
X85200000Y-80200000D03*
D20*
X96000000Y-85400000D03*
X94000000Y-85400000D03*
X94000000Y-87400000D03*
X96000000Y-87400000D03*
D14*
X108400000Y-96200000D03*
X108400000Y-98200000D03*
X110400000Y-96200000D03*
X110400000Y-98200000D03*
X115000000Y-89600000D03*
X115000000Y-91600000D03*
X117000000Y-91600000D03*
X117000000Y-89600000D03*
D21*
X94400000Y-90800000D03*
X94400000Y-92700000D03*
D18*
X91100000Y-95400000D03*
X93000000Y-95400000D03*
D22*
X112500000Y-84800000D03*
X111200000Y-84800000D03*
X111850000Y-82900000D03*
X111200000Y-82900000D03*
X112500000Y-82900000D03*
D23*
X113150000Y-100200000D03*
X112200000Y-98200000D03*
X114100000Y-98200000D03*
D24*
X124200000Y-88400000D03*
D25*
X124200000Y-93480000D03*
D26*
X114680000Y-79800000D03*
D27*
X112140000Y-79800000D03*
X109600000Y-79800000D03*
X107060000Y-79800000D03*
X104520000Y-79800000D03*
X101980000Y-79800000D03*
X99440000Y-79800000D03*
X96900000Y-79800000D03*
X94360000Y-79800000D03*
X91820000Y-79800000D03*
X119800000Y-79060000D03*
D26*
X119800000Y-81600000D03*
X84600000Y-87000000D03*
D27*
X87140000Y-87000000D03*
D28*
X116720000Y-105200000D03*
X118000000Y-105200000D03*
X93000000Y-97600000D03*
X91720000Y-97600000D03*
D29*
X126950000Y-103000000D03*
D30*
X120650000Y-103000000D03*
X120650000Y-105300000D03*
X120650000Y-100700000D03*
D13*
X111100000Y-103750000D03*
X110600000Y-103750000D03*
X110100000Y-103750000D03*
X109600000Y-103750000D03*
X111100000Y-104250000D03*
X111100000Y-104750000D03*
X111100000Y-105250000D03*
X105800000Y-103750000D03*
X105800000Y-104250000D03*
X105800000Y-104750000D03*
X105800000Y-105250000D03*
X106300000Y-105250000D03*
X107300000Y-103750000D03*
X106800000Y-105250000D03*
D31*
X108450000Y-104800000D03*
D32*
X108900000Y-104800000D03*
D13*
X106300000Y-104750000D03*
X106300000Y-104250000D03*
X106300000Y-103750000D03*
X110600000Y-105250000D03*
X110600000Y-104750000D03*
X110600000Y-104250000D03*
X106800000Y-103750000D03*
X106800000Y-104750000D03*
X106800000Y-104250000D03*
X107300000Y-104250000D03*
X107300000Y-105250000D03*
X107300000Y-104750000D03*
D32*
X108000000Y-104800000D03*
D33*
X108450000Y-106100000D03*
D13*
X110100000Y-104750000D03*
X110100000Y-105250000D03*
X110100000Y-104250000D03*
X109600000Y-104750000D03*
X109600000Y-105250000D03*
X109600000Y-104250000D03*
X109600000Y-109300000D03*
X109600000Y-110300000D03*
X109600000Y-109800000D03*
X110100000Y-109300000D03*
X110100000Y-110300000D03*
X110100000Y-109800000D03*
D33*
X108450000Y-111150000D03*
D32*
X108000000Y-109850000D03*
D13*
X107300000Y-109800000D03*
X107300000Y-110300000D03*
X107300000Y-109300000D03*
X106800000Y-109300000D03*
X106800000Y-109800000D03*
X106800000Y-108800000D03*
X110600000Y-109300000D03*
X110600000Y-109800000D03*
X110600000Y-110300000D03*
X106300000Y-108800000D03*
X106300000Y-109300000D03*
X106300000Y-109800000D03*
D32*
X108900000Y-109850000D03*
D31*
X108450000Y-109850000D03*
D13*
X106800000Y-110300000D03*
X107300000Y-108800000D03*
X106300000Y-110300000D03*
X105800000Y-110300000D03*
X105800000Y-109800000D03*
X105800000Y-109300000D03*
X105800000Y-108800000D03*
X111100000Y-110300000D03*
X111100000Y-109800000D03*
X111100000Y-109300000D03*
X109600000Y-108800000D03*
X110100000Y-108800000D03*
X110600000Y-108800000D03*
X111100000Y-108800000D03*
X109600000Y-114200000D03*
X109600000Y-115200000D03*
X109600000Y-114700000D03*
X110100000Y-114200000D03*
X110100000Y-115200000D03*
X110100000Y-114700000D03*
D33*
X108450000Y-116050000D03*
D32*
X108000000Y-114750000D03*
D13*
X107300000Y-114700000D03*
X107300000Y-115200000D03*
X107300000Y-114200000D03*
X106800000Y-114200000D03*
X106800000Y-114700000D03*
X106800000Y-113700000D03*
X110600000Y-114200000D03*
X110600000Y-114700000D03*
X110600000Y-115200000D03*
X106300000Y-113700000D03*
X106300000Y-114200000D03*
X106300000Y-114700000D03*
D32*
X108900000Y-114750000D03*
D31*
X108450000Y-114750000D03*
D13*
X106800000Y-115200000D03*
X107300000Y-113700000D03*
X106300000Y-115200000D03*
X105800000Y-115200000D03*
X105800000Y-114700000D03*
X105800000Y-114200000D03*
X105800000Y-113700000D03*
X111100000Y-115200000D03*
X111100000Y-114700000D03*
X111100000Y-114200000D03*
X109600000Y-113700000D03*
X110100000Y-113700000D03*
X110600000Y-113700000D03*
X111100000Y-113700000D03*
X104350000Y-103750000D03*
X103850000Y-103750000D03*
X103350000Y-103750000D03*
X102850000Y-103750000D03*
X104350000Y-104250000D03*
X104350000Y-104750000D03*
X104350000Y-105250000D03*
X99050000Y-103750000D03*
X99050000Y-104250000D03*
X99050000Y-104750000D03*
X99050000Y-105250000D03*
X99550000Y-105250000D03*
X100550000Y-103750000D03*
X100050000Y-105250000D03*
D31*
X101700000Y-104800000D03*
D32*
X102150000Y-104800000D03*
D13*
X99550000Y-104750000D03*
X99550000Y-104250000D03*
X99550000Y-103750000D03*
X103850000Y-105250000D03*
X103850000Y-104750000D03*
X103850000Y-104250000D03*
X100050000Y-103750000D03*
X100050000Y-104750000D03*
X100050000Y-104250000D03*
X100550000Y-104250000D03*
X100550000Y-105250000D03*
X100550000Y-104750000D03*
D32*
X101250000Y-104800000D03*
D33*
X101700000Y-106100000D03*
D13*
X103350000Y-104750000D03*
X103350000Y-105250000D03*
X103350000Y-104250000D03*
X102850000Y-104750000D03*
X102850000Y-105250000D03*
X102850000Y-104250000D03*
X102850000Y-109300000D03*
X102850000Y-110300000D03*
X102850000Y-109800000D03*
X103350000Y-109300000D03*
X103350000Y-110300000D03*
X103350000Y-109800000D03*
D33*
X101700000Y-111150000D03*
D32*
X101250000Y-109850000D03*
D13*
X100550000Y-109800000D03*
X100550000Y-110300000D03*
X100550000Y-109300000D03*
X100050000Y-109300000D03*
X100050000Y-109800000D03*
X100050000Y-108800000D03*
X103850000Y-109300000D03*
X103850000Y-109800000D03*
X103850000Y-110300000D03*
X99550000Y-108800000D03*
X99550000Y-109300000D03*
X99550000Y-109800000D03*
D32*
X102150000Y-109850000D03*
D31*
X101700000Y-109850000D03*
D13*
X100050000Y-110300000D03*
X100550000Y-108800000D03*
X99550000Y-110300000D03*
X99050000Y-110300000D03*
X99050000Y-109800000D03*
X99050000Y-109300000D03*
X99050000Y-108800000D03*
X104350000Y-110300000D03*
X104350000Y-109800000D03*
X104350000Y-109300000D03*
X102850000Y-108800000D03*
X103350000Y-108800000D03*
X103850000Y-108800000D03*
X104350000Y-108800000D03*
X102850000Y-114200000D03*
X102850000Y-115200000D03*
X102850000Y-114700000D03*
X103350000Y-114200000D03*
X103350000Y-115200000D03*
X103350000Y-114700000D03*
D33*
X101700000Y-116050000D03*
D32*
X101250000Y-114750000D03*
D13*
X100550000Y-114700000D03*
X100550000Y-115200000D03*
X100550000Y-114200000D03*
X100050000Y-114200000D03*
X100050000Y-114700000D03*
X100050000Y-113700000D03*
X103850000Y-114200000D03*
X103850000Y-114700000D03*
X103850000Y-115200000D03*
X99550000Y-113700000D03*
X99550000Y-114200000D03*
X99550000Y-114700000D03*
D32*
X102150000Y-114750000D03*
D31*
X101700000Y-114750000D03*
D13*
X100050000Y-115200000D03*
X100550000Y-113700000D03*
X99550000Y-115200000D03*
X99050000Y-115200000D03*
X99050000Y-114700000D03*
X99050000Y-114200000D03*
X99050000Y-113700000D03*
X104350000Y-115200000D03*
X104350000Y-114700000D03*
X104350000Y-114200000D03*
X102850000Y-113700000D03*
X103350000Y-113700000D03*
X103850000Y-113700000D03*
X104350000Y-113700000D03*
X96100000Y-104250000D03*
X96100000Y-105250000D03*
X96100000Y-104750000D03*
X96600000Y-104250000D03*
X96600000Y-105250000D03*
X96600000Y-104750000D03*
D33*
X94950000Y-106100000D03*
D32*
X94500000Y-104800000D03*
D13*
X93800000Y-104750000D03*
X93800000Y-105250000D03*
X93800000Y-104250000D03*
X93300000Y-104250000D03*
X93300000Y-104750000D03*
X93300000Y-103750000D03*
X97100000Y-104250000D03*
X97100000Y-104750000D03*
X97100000Y-105250000D03*
X92800000Y-103750000D03*
X92800000Y-104250000D03*
X92800000Y-104750000D03*
D32*
X95400000Y-104800000D03*
D31*
X94950000Y-104800000D03*
D13*
X93300000Y-105250000D03*
X93800000Y-103750000D03*
X92800000Y-105250000D03*
X92300000Y-105250000D03*
X92300000Y-104750000D03*
X92300000Y-104250000D03*
X92300000Y-103750000D03*
X97600000Y-105250000D03*
X97600000Y-104750000D03*
X97600000Y-104250000D03*
X96100000Y-103750000D03*
X96600000Y-103750000D03*
X97100000Y-103750000D03*
X97600000Y-103750000D03*
X97600000Y-108800000D03*
X97100000Y-108800000D03*
X96600000Y-108800000D03*
X96100000Y-108800000D03*
X97600000Y-109300000D03*
X97600000Y-109800000D03*
X97600000Y-110300000D03*
X92300000Y-108800000D03*
X92300000Y-109300000D03*
X92300000Y-109800000D03*
X92300000Y-110300000D03*
X92800000Y-110300000D03*
X93800000Y-108800000D03*
X93300000Y-110300000D03*
D31*
X94950000Y-109850000D03*
D32*
X95400000Y-109850000D03*
D13*
X92800000Y-109800000D03*
X92800000Y-109300000D03*
X92800000Y-108800000D03*
X97100000Y-110300000D03*
X97100000Y-109800000D03*
X97100000Y-109300000D03*
X93300000Y-108800000D03*
X93300000Y-109800000D03*
X93300000Y-109300000D03*
X93800000Y-109300000D03*
X93800000Y-110300000D03*
X93800000Y-109800000D03*
D32*
X94500000Y-109850000D03*
D33*
X94950000Y-111150000D03*
D13*
X96600000Y-109800000D03*
X96600000Y-110300000D03*
X96600000Y-109300000D03*
X96100000Y-109800000D03*
X96100000Y-110300000D03*
X96100000Y-109300000D03*
X97600000Y-113700000D03*
X97100000Y-113700000D03*
X96600000Y-113700000D03*
X96100000Y-113700000D03*
X97600000Y-114200000D03*
X97600000Y-114700000D03*
X97600000Y-115200000D03*
X92300000Y-113700000D03*
X92300000Y-114200000D03*
X92300000Y-114700000D03*
X92300000Y-115200000D03*
X92800000Y-115200000D03*
X93800000Y-113700000D03*
X93300000Y-115200000D03*
D31*
X94950000Y-114750000D03*
D32*
X95400000Y-114750000D03*
D13*
X92800000Y-114700000D03*
X92800000Y-114200000D03*
X92800000Y-113700000D03*
X97100000Y-115200000D03*
X97100000Y-114700000D03*
X97100000Y-114200000D03*
X93300000Y-113700000D03*
X93300000Y-114700000D03*
X93300000Y-114200000D03*
X93800000Y-114200000D03*
X93800000Y-115200000D03*
X93800000Y-114700000D03*
D32*
X94500000Y-114750000D03*
D33*
X94950000Y-116050000D03*
D13*
X96600000Y-114700000D03*
X96600000Y-115200000D03*
X96600000Y-114200000D03*
X96100000Y-114700000D03*
X96100000Y-115200000D03*
X96100000Y-114200000D03*
M02*
