%TF.GenerationSoftware,KiCad,Pcbnew,(5.1.4)-1*%
%TF.CreationDate,2019-08-25T21:13:44+02:00*%
%TF.ProjectId,ToF_illumination_icHaus_LED,546f465f-696c-46c7-956d-696e6174696f,1*%
%TF.SameCoordinates,Original*%
%TF.FileFunction,Copper,L1,Top*%
%TF.FilePolarity,Positive*%
%FSLAX46Y46*%
G04 Gerber Fmt 4.6, Leading zero omitted, Abs format (unit mm)*
G04 Created by KiCad (PCBNEW (5.1.4)-1) date 2019-08-25 21:13:44*
%MOMM*%
%LPD*%
G04 APERTURE LIST*
%ADD10C,0.250000*%
%ADD11C,0.125000*%
%ADD12C,0.300000*%
%ADD13R,1.725000X1.725000*%
%ADD14R,0.250000X0.700000*%
%ADD15R,0.700000X0.250000*%
%ADD16C,0.500000*%
%ADD17R,1.250000X1.000000*%
%ADD18R,2.500000X1.000000*%
%ADD19R,1.000000X2.500000*%
%ADD20R,0.600000X0.700000*%
%ADD21R,0.700000X1.300000*%
%ADD22R,1.000000X1.250000*%
%ADD23R,1.300000X0.700000*%
%ADD24R,0.400000X0.650000*%
%ADD25R,0.800000X0.900000*%
%ADD26R,3.000000X3.000000*%
%ADD27C,3.000000*%
%ADD28R,1.700000X1.700000*%
%ADD29O,1.700000X1.700000*%
%ADD30R,0.970000X1.270000*%
%ADD31R,2.000000X3.800000*%
%ADD32R,2.000000X1.500000*%
%ADD33R,1.600000X1.500000*%
%ADD34R,0.650000X1.500000*%
%ADD35R,1.600000X0.500000*%
%ADD36R,2.000000X1.000000*%
%ADD37R,6.000000X2.100000*%
%ADD38R,1.200000X0.500000*%
%ADD39C,0.685800*%
%ADD40C,0.635000*%
%ADD41C,0.508000*%
%ADD42C,0.381000*%
%ADD43C,0.203200*%
%ADD44C,0.254000*%
%ADD45C,0.152400*%
%ADD46C,1.270000*%
G04 APERTURE END LIST*
D10*
X117714285Y-108071428D02*
X118476190Y-108071428D01*
X118095238Y-108452380D02*
X118095238Y-107690476D01*
X119428571Y-107452380D02*
X118952380Y-107452380D01*
X118904761Y-107928571D01*
X118952380Y-107880952D01*
X119047619Y-107833333D01*
X119285714Y-107833333D01*
X119380952Y-107880952D01*
X119428571Y-107928571D01*
X119476190Y-108023809D01*
X119476190Y-108261904D01*
X119428571Y-108357142D01*
X119380952Y-108404761D01*
X119285714Y-108452380D01*
X119047619Y-108452380D01*
X118952380Y-108404761D01*
X118904761Y-108357142D01*
X119761904Y-107452380D02*
X120095238Y-108452380D01*
X120428571Y-107452380D01*
D11*
X92619047Y-75750000D02*
X92571428Y-75726190D01*
X92500000Y-75726190D01*
X92428571Y-75750000D01*
X92380952Y-75797619D01*
X92357142Y-75845238D01*
X92333333Y-75940476D01*
X92333333Y-76011904D01*
X92357142Y-76107142D01*
X92380952Y-76154761D01*
X92428571Y-76202380D01*
X92500000Y-76226190D01*
X92547619Y-76226190D01*
X92619047Y-76202380D01*
X92642857Y-76178571D01*
X92642857Y-76011904D01*
X92547619Y-76011904D01*
X92857142Y-76226190D02*
X92857142Y-75726190D01*
X93142857Y-76226190D01*
X93142857Y-75726190D01*
X93380952Y-76226190D02*
X93380952Y-75726190D01*
X93500000Y-75726190D01*
X93571428Y-75750000D01*
X93619047Y-75797619D01*
X93642857Y-75845238D01*
X93666666Y-75940476D01*
X93666666Y-76011904D01*
X93642857Y-76107142D01*
X93619047Y-76154761D01*
X93571428Y-76202380D01*
X93500000Y-76226190D01*
X93380952Y-76226190D01*
X98357142Y-77035714D02*
X98738095Y-77035714D01*
X98547619Y-77226190D02*
X98547619Y-76845238D01*
X99214285Y-76726190D02*
X98976190Y-76726190D01*
X98952380Y-76964285D01*
X98976190Y-76940476D01*
X99023809Y-76916666D01*
X99142857Y-76916666D01*
X99190476Y-76940476D01*
X99214285Y-76964285D01*
X99238095Y-77011904D01*
X99238095Y-77130952D01*
X99214285Y-77178571D01*
X99190476Y-77202380D01*
X99142857Y-77226190D01*
X99023809Y-77226190D01*
X98976190Y-77202380D01*
X98952380Y-77178571D01*
X99380952Y-76726190D02*
X99547619Y-77226190D01*
X99714285Y-76726190D01*
X102619047Y-77226190D02*
X102619047Y-76726190D01*
X102904761Y-77226190D01*
X102904761Y-76726190D01*
X103142857Y-76964285D02*
X103309523Y-76964285D01*
X103380952Y-77226190D02*
X103142857Y-77226190D01*
X103142857Y-76726190D01*
X103380952Y-76726190D01*
X103880952Y-77226190D02*
X103714285Y-76988095D01*
X103595238Y-77226190D02*
X103595238Y-76726190D01*
X103785714Y-76726190D01*
X103833333Y-76750000D01*
X103857142Y-76773809D01*
X103880952Y-76821428D01*
X103880952Y-76892857D01*
X103857142Y-76940476D01*
X103833333Y-76964285D01*
X103785714Y-76988095D01*
X103595238Y-76988095D01*
X104380952Y-77226190D02*
X104214285Y-76988095D01*
X104095238Y-77226190D02*
X104095238Y-76726190D01*
X104285714Y-76726190D01*
X104333333Y-76750000D01*
X104357142Y-76773809D01*
X104380952Y-76821428D01*
X104380952Y-76892857D01*
X104357142Y-76940476D01*
X104333333Y-76964285D01*
X104285714Y-76988095D01*
X104095238Y-76988095D01*
X104690476Y-76726190D02*
X104785714Y-76726190D01*
X104833333Y-76750000D01*
X104880952Y-76797619D01*
X104904761Y-76892857D01*
X104904761Y-77059523D01*
X104880952Y-77154761D01*
X104833333Y-77202380D01*
X104785714Y-77226190D01*
X104690476Y-77226190D01*
X104642857Y-77202380D01*
X104595238Y-77154761D01*
X104571428Y-77059523D01*
X104571428Y-76892857D01*
X104595238Y-76797619D01*
X104642857Y-76750000D01*
X104690476Y-76726190D01*
X105404761Y-77226190D02*
X105238095Y-76988095D01*
X105119047Y-77226190D02*
X105119047Y-76726190D01*
X105309523Y-76726190D01*
X105357142Y-76750000D01*
X105380952Y-76773809D01*
X105404761Y-76821428D01*
X105404761Y-76892857D01*
X105380952Y-76940476D01*
X105357142Y-76964285D01*
X105309523Y-76988095D01*
X105119047Y-76988095D01*
X108738095Y-76964285D02*
X108904761Y-76964285D01*
X108976190Y-77226190D02*
X108738095Y-77226190D01*
X108738095Y-76726190D01*
X108976190Y-76726190D01*
X109190476Y-77226190D02*
X109190476Y-76726190D01*
X109476190Y-77226190D01*
X109476190Y-76726190D01*
X109690476Y-77083333D02*
X109928571Y-77083333D01*
X109642857Y-77226190D02*
X109809523Y-76726190D01*
X109976190Y-77226190D01*
X110309523Y-76964285D02*
X110380952Y-76988095D01*
X110404761Y-77011904D01*
X110428571Y-77059523D01*
X110428571Y-77130952D01*
X110404761Y-77178571D01*
X110380952Y-77202380D01*
X110333333Y-77226190D01*
X110142857Y-77226190D01*
X110142857Y-76726190D01*
X110309523Y-76726190D01*
X110357142Y-76750000D01*
X110380952Y-76773809D01*
X110404761Y-76821428D01*
X110404761Y-76869047D01*
X110380952Y-76916666D01*
X110357142Y-76940476D01*
X110309523Y-76964285D01*
X110142857Y-76964285D01*
X110880952Y-77226190D02*
X110642857Y-77226190D01*
X110642857Y-76726190D01*
X111047619Y-76964285D02*
X111214285Y-76964285D01*
X111285714Y-77226190D02*
X111047619Y-77226190D01*
X111047619Y-76726190D01*
X111285714Y-76726190D01*
X114452380Y-76726190D02*
X114619047Y-77226190D01*
X114785714Y-76726190D01*
X114952380Y-77226190D02*
X114952380Y-76726190D01*
X115285714Y-76726190D02*
X115380952Y-76726190D01*
X115428571Y-76750000D01*
X115476190Y-76797619D01*
X115500000Y-76892857D01*
X115500000Y-77059523D01*
X115476190Y-77154761D01*
X115428571Y-77202380D01*
X115380952Y-77226190D01*
X115285714Y-77226190D01*
X115238095Y-77202380D01*
X115190476Y-77154761D01*
X115166666Y-77059523D01*
X115166666Y-76892857D01*
X115190476Y-76797619D01*
X115238095Y-76750000D01*
X115285714Y-76726190D01*
D12*
X81250000Y-93142857D02*
X81178571Y-93285714D01*
X81178571Y-93500000D01*
X81250000Y-93714285D01*
X81392857Y-93857142D01*
X81535714Y-93928571D01*
X81821428Y-94000000D01*
X82035714Y-94000000D01*
X82321428Y-93928571D01*
X82464285Y-93857142D01*
X82607142Y-93714285D01*
X82678571Y-93500000D01*
X82678571Y-93357142D01*
X82607142Y-93142857D01*
X82535714Y-93071428D01*
X82035714Y-93071428D01*
X82035714Y-93357142D01*
X82678571Y-92428571D02*
X81178571Y-92428571D01*
X82678571Y-91571428D01*
X81178571Y-91571428D01*
X82678571Y-90857142D02*
X81178571Y-90857142D01*
X81178571Y-90500000D01*
X81250000Y-90285714D01*
X81392857Y-90142857D01*
X81535714Y-90071428D01*
X81821428Y-90000000D01*
X82035714Y-90000000D01*
X82321428Y-90071428D01*
X82464285Y-90142857D01*
X82607142Y-90285714D01*
X82678571Y-90500000D01*
X82678571Y-90857142D01*
X123357142Y-85107142D02*
X124500000Y-85107142D01*
X123928571Y-85678571D02*
X123928571Y-84535714D01*
X126000000Y-85678571D02*
X125142857Y-85678571D01*
X125571428Y-85678571D02*
X125571428Y-84178571D01*
X125428571Y-84392857D01*
X125285714Y-84535714D01*
X125142857Y-84607142D01*
X126571428Y-84321428D02*
X126642857Y-84250000D01*
X126785714Y-84178571D01*
X127142857Y-84178571D01*
X127285714Y-84250000D01*
X127357142Y-84321428D01*
X127428571Y-84464285D01*
X127428571Y-84607142D01*
X127357142Y-84821428D01*
X126500000Y-85678571D01*
X127428571Y-85678571D01*
X127857142Y-84178571D02*
X128357142Y-85678571D01*
X128857142Y-84178571D01*
D13*
X102800000Y-96800000D03*
X102800000Y-95075000D03*
X101075000Y-96800000D03*
X101075000Y-95075000D03*
D14*
X103687500Y-98337500D03*
X103187500Y-98337500D03*
X102687500Y-98337500D03*
X102187500Y-98337500D03*
X101687500Y-98337500D03*
X101187500Y-98337500D03*
X100687500Y-98337500D03*
X100187500Y-98337500D03*
D15*
X99537500Y-97687500D03*
X99537500Y-97187500D03*
X99537500Y-96687500D03*
X99537500Y-96187500D03*
X99537500Y-95687500D03*
X99537500Y-95187500D03*
X99537500Y-94687500D03*
X99537500Y-94187500D03*
D14*
X100187500Y-93537500D03*
X100687500Y-93537500D03*
X101187500Y-93537500D03*
X101687500Y-93537500D03*
X102187500Y-93537500D03*
X102687500Y-93537500D03*
X103187500Y-93537500D03*
X103687500Y-93537500D03*
D15*
X104337500Y-94187500D03*
X104337500Y-94687500D03*
X104337500Y-95187500D03*
X104337500Y-95687500D03*
X104337500Y-96187500D03*
X104337500Y-96687500D03*
X104337500Y-97187500D03*
X104337500Y-97687500D03*
D16*
X101937500Y-96637500D03*
X101937500Y-95237500D03*
X101937500Y-95937500D03*
X101937500Y-94537500D03*
X100537500Y-97337500D03*
X101237500Y-97337500D03*
X103337500Y-97337500D03*
X101937500Y-97337500D03*
X102637500Y-97337500D03*
X103337500Y-96637500D03*
X101237500Y-96637500D03*
X100537500Y-96637500D03*
X102637500Y-96637500D03*
X103337500Y-95237500D03*
X101237500Y-95237500D03*
X100537500Y-95237500D03*
X102637500Y-95237500D03*
X102637500Y-94537500D03*
X103337500Y-94537500D03*
X101237500Y-94537500D03*
X100537500Y-94537500D03*
X103337500Y-95937500D03*
X101237500Y-95937500D03*
X100537500Y-95937500D03*
X102637500Y-95937500D03*
D17*
X99400000Y-88800000D03*
X99400000Y-90800000D03*
X102200000Y-88800000D03*
X102200000Y-90800000D03*
X105000000Y-88850000D03*
X105000000Y-90850000D03*
D18*
X112600000Y-89525000D03*
X112600000Y-92525000D03*
X109800000Y-89525000D03*
X109800000Y-92525000D03*
D19*
X96325000Y-83000000D03*
X93325000Y-83000000D03*
D20*
X97500000Y-99800000D03*
X98900000Y-99800000D03*
X100300000Y-100800000D03*
X101700000Y-100800000D03*
X104500000Y-100800000D03*
X103100000Y-100800000D03*
D21*
X103000000Y-82400000D03*
X101100000Y-82400000D03*
D22*
X96000000Y-85400000D03*
X94000000Y-85400000D03*
X94000000Y-87400000D03*
X96000000Y-87400000D03*
D17*
X108400000Y-96200000D03*
X108400000Y-98200000D03*
X110400000Y-96200000D03*
X110400000Y-98200000D03*
X115000000Y-89600000D03*
X115000000Y-91600000D03*
X117000000Y-91600000D03*
X117000000Y-89600000D03*
D23*
X94400000Y-90800000D03*
X94400000Y-92700000D03*
D21*
X91100000Y-95400000D03*
X93000000Y-95400000D03*
D24*
X112500000Y-84800000D03*
X111200000Y-84800000D03*
X111850000Y-82900000D03*
X111200000Y-82900000D03*
X112500000Y-82900000D03*
D25*
X113150000Y-100200000D03*
X112200000Y-98200000D03*
X114100000Y-98200000D03*
D26*
X124200000Y-88400000D03*
D27*
X124200000Y-93480000D03*
D28*
X114680000Y-79800000D03*
D29*
X112140000Y-79800000D03*
X109600000Y-79800000D03*
X107060000Y-79800000D03*
X104520000Y-79800000D03*
X101980000Y-79800000D03*
X99440000Y-79800000D03*
X96900000Y-79800000D03*
X94360000Y-79800000D03*
X91820000Y-79800000D03*
X119800000Y-79060000D03*
D28*
X119800000Y-81600000D03*
X84600000Y-87000000D03*
D29*
X87140000Y-87000000D03*
D30*
X116720000Y-105200000D03*
X118000000Y-105200000D03*
X93000000Y-97600000D03*
X91720000Y-97600000D03*
D31*
X126950000Y-103000000D03*
D32*
X120650000Y-103000000D03*
X120650000Y-105300000D03*
X120650000Y-100700000D03*
D16*
X111100000Y-103750000D03*
X110600000Y-103750000D03*
X110100000Y-103750000D03*
X109600000Y-103750000D03*
X111100000Y-104250000D03*
X111100000Y-104750000D03*
X111100000Y-105250000D03*
X105800000Y-103750000D03*
X105800000Y-104250000D03*
X105800000Y-104750000D03*
X105800000Y-105250000D03*
X106300000Y-105250000D03*
X107300000Y-103750000D03*
X106800000Y-105250000D03*
D33*
X108450000Y-104800000D03*
D34*
X108900000Y-104800000D03*
D35*
X108450000Y-103800000D03*
D36*
X108450000Y-106350000D03*
D16*
X106300000Y-104750000D03*
X106300000Y-104250000D03*
X106300000Y-103750000D03*
X110600000Y-105250000D03*
X110600000Y-104750000D03*
X110600000Y-104250000D03*
X106800000Y-103750000D03*
X106800000Y-104750000D03*
X106800000Y-104250000D03*
X107300000Y-104250000D03*
X107300000Y-105250000D03*
X107300000Y-104750000D03*
D37*
X108450000Y-104500000D03*
D34*
X108000000Y-104800000D03*
D38*
X108450000Y-106100000D03*
D16*
X110100000Y-104750000D03*
X110100000Y-105250000D03*
X110100000Y-104250000D03*
X109600000Y-104750000D03*
X109600000Y-105250000D03*
X109600000Y-104250000D03*
X109600000Y-109300000D03*
X109600000Y-110300000D03*
X109600000Y-109800000D03*
X110100000Y-109300000D03*
X110100000Y-110300000D03*
X110100000Y-109800000D03*
D38*
X108450000Y-111150000D03*
D34*
X108000000Y-109850000D03*
D37*
X108450000Y-109550000D03*
D16*
X107300000Y-109800000D03*
X107300000Y-110300000D03*
X107300000Y-109300000D03*
X106800000Y-109300000D03*
X106800000Y-109800000D03*
X106800000Y-108800000D03*
X110600000Y-109300000D03*
X110600000Y-109800000D03*
X110600000Y-110300000D03*
X106300000Y-108800000D03*
X106300000Y-109300000D03*
X106300000Y-109800000D03*
D36*
X108450000Y-111400000D03*
D35*
X108450000Y-108850000D03*
D34*
X108900000Y-109850000D03*
D33*
X108450000Y-109850000D03*
D16*
X106800000Y-110300000D03*
X107300000Y-108800000D03*
X106300000Y-110300000D03*
X105800000Y-110300000D03*
X105800000Y-109800000D03*
X105800000Y-109300000D03*
X105800000Y-108800000D03*
X111100000Y-110300000D03*
X111100000Y-109800000D03*
X111100000Y-109300000D03*
X109600000Y-108800000D03*
X110100000Y-108800000D03*
X110600000Y-108800000D03*
X111100000Y-108800000D03*
X109600000Y-114200000D03*
X109600000Y-115200000D03*
X109600000Y-114700000D03*
X110100000Y-114200000D03*
X110100000Y-115200000D03*
X110100000Y-114700000D03*
D38*
X108450000Y-116050000D03*
D34*
X108000000Y-114750000D03*
D37*
X108450000Y-114450000D03*
D16*
X107300000Y-114700000D03*
X107300000Y-115200000D03*
X107300000Y-114200000D03*
X106800000Y-114200000D03*
X106800000Y-114700000D03*
X106800000Y-113700000D03*
X110600000Y-114200000D03*
X110600000Y-114700000D03*
X110600000Y-115200000D03*
X106300000Y-113700000D03*
X106300000Y-114200000D03*
X106300000Y-114700000D03*
D36*
X108450000Y-116300000D03*
D35*
X108450000Y-113750000D03*
D34*
X108900000Y-114750000D03*
D33*
X108450000Y-114750000D03*
D16*
X106800000Y-115200000D03*
X107300000Y-113700000D03*
X106300000Y-115200000D03*
X105800000Y-115200000D03*
X105800000Y-114700000D03*
X105800000Y-114200000D03*
X105800000Y-113700000D03*
X111100000Y-115200000D03*
X111100000Y-114700000D03*
X111100000Y-114200000D03*
X109600000Y-113700000D03*
X110100000Y-113700000D03*
X110600000Y-113700000D03*
X111100000Y-113700000D03*
X104350000Y-103750000D03*
X103850000Y-103750000D03*
X103350000Y-103750000D03*
X102850000Y-103750000D03*
X104350000Y-104250000D03*
X104350000Y-104750000D03*
X104350000Y-105250000D03*
X99050000Y-103750000D03*
X99050000Y-104250000D03*
X99050000Y-104750000D03*
X99050000Y-105250000D03*
X99550000Y-105250000D03*
X100550000Y-103750000D03*
X100050000Y-105250000D03*
D33*
X101700000Y-104800000D03*
D34*
X102150000Y-104800000D03*
D35*
X101700000Y-103800000D03*
D36*
X101700000Y-106350000D03*
D16*
X99550000Y-104750000D03*
X99550000Y-104250000D03*
X99550000Y-103750000D03*
X103850000Y-105250000D03*
X103850000Y-104750000D03*
X103850000Y-104250000D03*
X100050000Y-103750000D03*
X100050000Y-104750000D03*
X100050000Y-104250000D03*
X100550000Y-104250000D03*
X100550000Y-105250000D03*
X100550000Y-104750000D03*
D37*
X101700000Y-104500000D03*
D34*
X101250000Y-104800000D03*
D38*
X101700000Y-106100000D03*
D16*
X103350000Y-104750000D03*
X103350000Y-105250000D03*
X103350000Y-104250000D03*
X102850000Y-104750000D03*
X102850000Y-105250000D03*
X102850000Y-104250000D03*
X102850000Y-109300000D03*
X102850000Y-110300000D03*
X102850000Y-109800000D03*
X103350000Y-109300000D03*
X103350000Y-110300000D03*
X103350000Y-109800000D03*
D38*
X101700000Y-111150000D03*
D34*
X101250000Y-109850000D03*
D37*
X101700000Y-109550000D03*
D16*
X100550000Y-109800000D03*
X100550000Y-110300000D03*
X100550000Y-109300000D03*
X100050000Y-109300000D03*
X100050000Y-109800000D03*
X100050000Y-108800000D03*
X103850000Y-109300000D03*
X103850000Y-109800000D03*
X103850000Y-110300000D03*
X99550000Y-108800000D03*
X99550000Y-109300000D03*
X99550000Y-109800000D03*
D36*
X101700000Y-111400000D03*
D35*
X101700000Y-108850000D03*
D34*
X102150000Y-109850000D03*
D33*
X101700000Y-109850000D03*
D16*
X100050000Y-110300000D03*
X100550000Y-108800000D03*
X99550000Y-110300000D03*
X99050000Y-110300000D03*
X99050000Y-109800000D03*
X99050000Y-109300000D03*
X99050000Y-108800000D03*
X104350000Y-110300000D03*
X104350000Y-109800000D03*
X104350000Y-109300000D03*
X102850000Y-108800000D03*
X103350000Y-108800000D03*
X103850000Y-108800000D03*
X104350000Y-108800000D03*
X102850000Y-114200000D03*
X102850000Y-115200000D03*
X102850000Y-114700000D03*
X103350000Y-114200000D03*
X103350000Y-115200000D03*
X103350000Y-114700000D03*
D38*
X101700000Y-116050000D03*
D34*
X101250000Y-114750000D03*
D37*
X101700000Y-114450000D03*
D16*
X100550000Y-114700000D03*
X100550000Y-115200000D03*
X100550000Y-114200000D03*
X100050000Y-114200000D03*
X100050000Y-114700000D03*
X100050000Y-113700000D03*
X103850000Y-114200000D03*
X103850000Y-114700000D03*
X103850000Y-115200000D03*
X99550000Y-113700000D03*
X99550000Y-114200000D03*
X99550000Y-114700000D03*
D36*
X101700000Y-116300000D03*
D35*
X101700000Y-113750000D03*
D34*
X102150000Y-114750000D03*
D33*
X101700000Y-114750000D03*
D16*
X100050000Y-115200000D03*
X100550000Y-113700000D03*
X99550000Y-115200000D03*
X99050000Y-115200000D03*
X99050000Y-114700000D03*
X99050000Y-114200000D03*
X99050000Y-113700000D03*
X104350000Y-115200000D03*
X104350000Y-114700000D03*
X104350000Y-114200000D03*
X102850000Y-113700000D03*
X103350000Y-113700000D03*
X103850000Y-113700000D03*
X104350000Y-113700000D03*
X96100000Y-104250000D03*
X96100000Y-105250000D03*
X96100000Y-104750000D03*
X96600000Y-104250000D03*
X96600000Y-105250000D03*
X96600000Y-104750000D03*
D38*
X94950000Y-106100000D03*
D34*
X94500000Y-104800000D03*
D37*
X94950000Y-104500000D03*
D16*
X93800000Y-104750000D03*
X93800000Y-105250000D03*
X93800000Y-104250000D03*
X93300000Y-104250000D03*
X93300000Y-104750000D03*
X93300000Y-103750000D03*
X97100000Y-104250000D03*
X97100000Y-104750000D03*
X97100000Y-105250000D03*
X92800000Y-103750000D03*
X92800000Y-104250000D03*
X92800000Y-104750000D03*
D36*
X94950000Y-106350000D03*
D35*
X94950000Y-103800000D03*
D34*
X95400000Y-104800000D03*
D33*
X94950000Y-104800000D03*
D16*
X93300000Y-105250000D03*
X93800000Y-103750000D03*
X92800000Y-105250000D03*
X92300000Y-105250000D03*
X92300000Y-104750000D03*
X92300000Y-104250000D03*
X92300000Y-103750000D03*
X97600000Y-105250000D03*
X97600000Y-104750000D03*
X97600000Y-104250000D03*
X96100000Y-103750000D03*
X96600000Y-103750000D03*
X97100000Y-103750000D03*
X97600000Y-103750000D03*
X97600000Y-108800000D03*
X97100000Y-108800000D03*
X96600000Y-108800000D03*
X96100000Y-108800000D03*
X97600000Y-109300000D03*
X97600000Y-109800000D03*
X97600000Y-110300000D03*
X92300000Y-108800000D03*
X92300000Y-109300000D03*
X92300000Y-109800000D03*
X92300000Y-110300000D03*
X92800000Y-110300000D03*
X93800000Y-108800000D03*
X93300000Y-110300000D03*
D33*
X94950000Y-109850000D03*
D34*
X95400000Y-109850000D03*
D35*
X94950000Y-108850000D03*
D36*
X94950000Y-111400000D03*
D16*
X92800000Y-109800000D03*
X92800000Y-109300000D03*
X92800000Y-108800000D03*
X97100000Y-110300000D03*
X97100000Y-109800000D03*
X97100000Y-109300000D03*
X93300000Y-108800000D03*
X93300000Y-109800000D03*
X93300000Y-109300000D03*
X93800000Y-109300000D03*
X93800000Y-110300000D03*
X93800000Y-109800000D03*
D37*
X94950000Y-109550000D03*
D34*
X94500000Y-109850000D03*
D38*
X94950000Y-111150000D03*
D16*
X96600000Y-109800000D03*
X96600000Y-110300000D03*
X96600000Y-109300000D03*
X96100000Y-109800000D03*
X96100000Y-110300000D03*
X96100000Y-109300000D03*
X97600000Y-113700000D03*
X97100000Y-113700000D03*
X96600000Y-113700000D03*
X96100000Y-113700000D03*
X97600000Y-114200000D03*
X97600000Y-114700000D03*
X97600000Y-115200000D03*
X92300000Y-113700000D03*
X92300000Y-114200000D03*
X92300000Y-114700000D03*
X92300000Y-115200000D03*
X92800000Y-115200000D03*
X93800000Y-113700000D03*
X93300000Y-115200000D03*
D33*
X94950000Y-114750000D03*
D34*
X95400000Y-114750000D03*
D35*
X94950000Y-113750000D03*
D36*
X94950000Y-116300000D03*
D16*
X92800000Y-114700000D03*
X92800000Y-114200000D03*
X92800000Y-113700000D03*
X97100000Y-115200000D03*
X97100000Y-114700000D03*
X97100000Y-114200000D03*
X93300000Y-113700000D03*
X93300000Y-114700000D03*
X93300000Y-114200000D03*
X93800000Y-114200000D03*
X93800000Y-115200000D03*
X93800000Y-114700000D03*
D37*
X94950000Y-114450000D03*
D34*
X94500000Y-114750000D03*
D38*
X94950000Y-116050000D03*
D16*
X96600000Y-114700000D03*
X96600000Y-115200000D03*
X96600000Y-114200000D03*
X96100000Y-114700000D03*
X96100000Y-115200000D03*
X96100000Y-114200000D03*
D39*
X105819410Y-95968433D03*
X108800000Y-82400000D03*
X114200000Y-102000000D03*
X96000000Y-95400000D03*
X98600000Y-118000000D03*
X99600000Y-118000000D03*
X100600000Y-118000000D03*
X101600000Y-118000000D03*
X103600000Y-118000000D03*
X102600000Y-118000000D03*
X105600000Y-118000000D03*
X104600000Y-118000000D03*
X113600000Y-118000000D03*
X112600000Y-118000000D03*
X107600000Y-118000000D03*
X110600000Y-118000000D03*
X111600000Y-118000000D03*
X106600000Y-118000000D03*
X109600000Y-118000000D03*
X108600000Y-118000000D03*
X97600000Y-118000000D03*
X95600000Y-118000000D03*
X92600000Y-118000000D03*
X93600000Y-118000000D03*
X94600000Y-118000000D03*
X96600000Y-118000000D03*
X91600000Y-118000000D03*
X90600000Y-118000000D03*
X99600000Y-102200000D03*
X93200000Y-102200000D03*
X113800000Y-85200000D03*
X114000000Y-95800000D03*
X94600000Y-96800000D03*
X104080508Y-99501831D03*
X98400000Y-98000000D03*
X98400000Y-95488990D03*
D40*
X91820000Y-79800000D02*
X94360000Y-79800000D01*
X94360000Y-79800000D02*
X94360000Y-80840000D01*
X93650000Y-81550000D02*
X93650000Y-81650000D01*
X94360000Y-80840000D02*
X93650000Y-81550000D01*
X93650000Y-83000000D02*
X93650000Y-81650000D01*
X91140000Y-83000000D02*
X87140000Y-87000000D01*
X84600000Y-87000000D02*
X87140000Y-87000000D01*
X93650000Y-83000000D02*
X91800000Y-83000000D01*
X91800000Y-83000000D02*
X91140000Y-83000000D01*
X91100000Y-93800000D02*
X91100000Y-89900000D01*
X91100000Y-89900000D02*
X91800000Y-89200000D01*
D41*
X92000000Y-87400000D02*
X91800000Y-87600000D01*
X94000000Y-87400000D02*
X92000000Y-87400000D01*
D40*
X91800000Y-89200000D02*
X91800000Y-87600000D01*
D42*
X119269000Y-103000000D02*
X118000000Y-101731000D01*
X120650000Y-103000000D02*
X119269000Y-103000000D01*
X118000000Y-99680000D02*
X124200000Y-93480000D01*
X118000000Y-101731000D02*
X118000000Y-99680000D01*
D43*
X104337500Y-96187500D02*
X105600343Y-96187500D01*
X105600343Y-96187500D02*
X105819410Y-95968433D01*
D42*
X108400000Y-95319000D02*
X108600000Y-95119000D01*
X108400000Y-96200000D02*
X108400000Y-95319000D01*
X108600000Y-95119000D02*
X108600000Y-94800000D01*
X108600000Y-94800000D02*
X109200000Y-94200000D01*
X109200000Y-94200000D02*
X110000000Y-94200000D01*
X110400000Y-94600000D02*
X110400000Y-96200000D01*
X110000000Y-94200000D02*
X110400000Y-94600000D01*
D40*
X93650000Y-85050000D02*
X94000000Y-85400000D01*
X93650000Y-83000000D02*
X93650000Y-85050000D01*
X94000000Y-85400000D02*
X94000000Y-87400000D01*
D44*
X111200000Y-82900000D02*
X109300000Y-82900000D01*
X109300000Y-82900000D02*
X108800000Y-82400000D01*
D41*
X113150000Y-100200000D02*
X113150000Y-100950000D01*
X113150000Y-100950000D02*
X114200000Y-102000000D01*
D43*
X100462500Y-96187500D02*
X101075000Y-96800000D01*
X103412500Y-96187500D02*
X102800000Y-96800000D01*
X104337500Y-96187500D02*
X103412500Y-96187500D01*
D42*
X101075000Y-95075000D02*
X102800000Y-95075000D01*
D43*
X96787500Y-96187500D02*
X96000000Y-95400000D01*
X99537500Y-96187500D02*
X96787500Y-96187500D01*
X101028200Y-96187500D02*
X100012500Y-96187500D01*
X101075000Y-96140700D02*
X101028200Y-96187500D01*
X101075000Y-95075000D02*
X101075000Y-96140700D01*
X99537500Y-96187500D02*
X100012500Y-96187500D01*
X100012500Y-96187500D02*
X100462500Y-96187500D01*
X99600000Y-118000000D02*
X100600000Y-118000000D01*
X100600000Y-118000000D02*
X101600000Y-118000000D01*
X103600000Y-118000000D02*
X104600000Y-118000000D01*
X104600000Y-118000000D02*
X105600000Y-118000000D01*
X112600000Y-118000000D02*
X113600000Y-118000000D01*
X111600000Y-118000000D02*
X112600000Y-118000000D01*
X107600000Y-118000000D02*
X108600000Y-118000000D01*
X108600000Y-118000000D02*
X109600000Y-118000000D01*
X95600000Y-118000000D02*
X96600000Y-118000000D01*
X91600000Y-118000000D02*
X92600000Y-118000000D01*
X96600000Y-118000000D02*
X97600000Y-118000000D01*
X92600000Y-118000000D02*
X93600000Y-118000000D01*
D42*
X104500000Y-100800000D02*
X108000000Y-100800000D01*
X108000000Y-100800000D02*
X109200000Y-102000000D01*
X109200000Y-102000000D02*
X114200000Y-102000000D01*
X100300000Y-100800000D02*
X100300000Y-101500000D01*
X100300000Y-101500000D02*
X99600000Y-102200000D01*
X96819000Y-99800000D02*
X97500000Y-99800000D01*
X95115067Y-99800000D02*
X96819000Y-99800000D01*
X93200000Y-101715067D02*
X95115067Y-99800000D01*
X93200000Y-102200000D02*
X93200000Y-101715067D01*
D44*
X101704000Y-82400000D02*
X101100000Y-82400000D01*
X112500000Y-84800000D02*
X112500000Y-84221000D01*
X112500000Y-84221000D02*
X112279000Y-84000000D01*
X102400000Y-84000000D02*
X101800000Y-83400000D01*
X101800000Y-83400000D02*
X101800000Y-82496000D01*
X112279000Y-84000000D02*
X102400000Y-84000000D01*
X101800000Y-82496000D02*
X101704000Y-82400000D01*
D42*
X114881000Y-98200000D02*
X114100000Y-98200000D01*
X116720000Y-100039000D02*
X114881000Y-98200000D01*
X116720000Y-105200000D02*
X116720000Y-100039000D01*
D40*
X99440000Y-79800000D02*
X99440000Y-82160000D01*
X98600000Y-83000000D02*
X96000000Y-83000000D01*
X101100000Y-82400000D02*
X99200000Y-82400000D01*
X99440000Y-82160000D02*
X99200000Y-82400000D01*
X99200000Y-82400000D02*
X98600000Y-83000000D01*
X96000000Y-83000000D02*
X96000000Y-85400000D01*
X96000000Y-85400000D02*
X96000000Y-87400000D01*
D44*
X96000000Y-88596000D02*
X96000000Y-87400000D01*
X94400000Y-90800000D02*
X94400000Y-90196000D01*
X94400000Y-90196000D02*
X96000000Y-88596000D01*
X112500000Y-84800000D02*
X113400000Y-84800000D01*
X113400000Y-84800000D02*
X113800000Y-85200000D01*
X114100000Y-95900000D02*
X114000000Y-95800000D01*
X114100000Y-98200000D02*
X114100000Y-95900000D01*
D43*
X99537500Y-97187500D02*
X94987500Y-97187500D01*
X94987500Y-97187500D02*
X94600000Y-96800000D01*
D42*
X108400000Y-98200000D02*
X110400000Y-98200000D01*
X112200000Y-98200000D02*
X110400000Y-98200000D01*
D43*
X104337500Y-95687500D02*
X104890700Y-95687500D01*
X104890700Y-95687500D02*
X105112500Y-95687500D01*
X105187500Y-95187500D02*
X105400000Y-95400000D01*
X104337500Y-95187500D02*
X105187500Y-95187500D01*
X105112500Y-95687500D02*
X105400000Y-95400000D01*
X105400000Y-95400000D02*
X105842379Y-94957621D01*
X105572259Y-94687500D02*
X104337500Y-94687500D01*
X106517911Y-95633152D02*
X105572259Y-94687500D01*
X106487500Y-96687500D02*
X106517911Y-96717911D01*
X104337500Y-96687500D02*
X106487500Y-96687500D01*
X106517911Y-96717911D02*
X106517911Y-95633152D01*
X107400000Y-98200000D02*
X108400000Y-98200000D01*
X106800000Y-98200000D02*
X107400000Y-98200000D01*
X106517911Y-97917911D02*
X106800000Y-98200000D01*
X106487500Y-97687500D02*
X106517911Y-97717911D01*
X104337500Y-97687500D02*
X106487500Y-97687500D01*
X106517911Y-97717911D02*
X106517911Y-97917911D01*
X104890700Y-97187500D02*
X104903200Y-97200000D01*
X104337500Y-97187500D02*
X104890700Y-97187500D01*
X106400000Y-97200000D02*
X106517911Y-97082089D01*
X104903200Y-97200000D02*
X106400000Y-97200000D01*
X106517911Y-96717911D02*
X106517911Y-97082089D01*
X106517911Y-97082089D02*
X106517911Y-97717911D01*
D41*
X120650000Y-99150000D02*
X120650000Y-100700000D01*
X127800000Y-88400000D02*
X128400000Y-89000000D01*
X124200000Y-88400000D02*
X127800000Y-88400000D01*
X128400000Y-94600000D02*
X125600000Y-97400000D01*
X128400000Y-89000000D02*
X128400000Y-94600000D01*
X125600000Y-97400000D02*
X122400000Y-97400000D01*
X122400000Y-97400000D02*
X120650000Y-99150000D01*
D43*
X106800000Y-90400000D02*
X106800000Y-89400000D01*
X106500000Y-89100000D02*
X105000000Y-89100000D01*
X106800000Y-89400000D02*
X106500000Y-89100000D01*
D42*
X107750000Y-89850000D02*
X109800000Y-89850000D01*
D43*
X106725000Y-90475000D02*
X106800000Y-90400000D01*
D45*
X104337500Y-94187500D02*
X104839900Y-94187500D01*
D41*
X105263700Y-93763700D02*
X105263700Y-93736300D01*
X105263700Y-93736300D02*
X106500000Y-92500000D01*
X106500000Y-92500000D02*
X106500000Y-90750000D01*
X107725000Y-89525000D02*
X109800000Y-89525000D01*
X106500000Y-90750000D02*
X107725000Y-89525000D01*
D43*
X100187500Y-93537500D02*
X99859300Y-93537500D01*
D44*
X99637500Y-93537500D02*
X99859300Y-93537500D01*
D43*
X100187500Y-93537500D02*
X100187500Y-93487500D01*
X100187500Y-93487500D02*
X100000000Y-93300000D01*
X101187500Y-92187500D02*
X100700000Y-91700000D01*
X100700000Y-91700000D02*
X100700000Y-89700000D01*
X102075000Y-88800000D02*
X102200000Y-88800000D01*
X101175000Y-89700000D02*
X102075000Y-88800000D01*
X100700000Y-89700000D02*
X101175000Y-89700000D01*
X101687500Y-92487500D02*
X100900000Y-91700000D01*
X99525000Y-88800000D02*
X99400000Y-88800000D01*
X100900000Y-90175000D02*
X99525000Y-88800000D01*
X100900000Y-91700000D02*
X100900000Y-90175000D01*
X102687500Y-93537500D02*
X102687500Y-92984300D01*
X103200000Y-92471800D02*
X103200000Y-92000000D01*
X103200000Y-92000000D02*
X103600000Y-91600000D01*
X102325000Y-88800000D02*
X102200000Y-88800000D01*
X103600000Y-90075000D02*
X102325000Y-88800000D01*
X103600000Y-91600000D02*
X103600000Y-90075000D01*
X103187500Y-92984300D02*
X103600000Y-92571800D01*
X103187500Y-93537500D02*
X103187500Y-92984300D01*
X103600000Y-92571800D02*
X103600000Y-89800000D01*
X104875000Y-88850000D02*
X105000000Y-88850000D01*
X103925000Y-89800000D02*
X104875000Y-88850000D01*
X103600000Y-89800000D02*
X103925000Y-89800000D01*
D44*
X101187500Y-92987500D02*
X101187500Y-92187500D01*
D43*
X101187500Y-93537500D02*
X101187500Y-92987500D01*
D44*
X101687500Y-93012500D02*
X101687500Y-92487500D01*
D43*
X101687500Y-93537500D02*
X101687500Y-93012500D01*
D44*
X101662500Y-92987500D02*
X101687500Y-93012500D01*
X101187500Y-92987500D02*
X101662500Y-92987500D01*
X102687500Y-92984300D02*
X103187500Y-92984300D01*
X102687500Y-92984300D02*
X103200000Y-92471800D01*
D45*
X104839900Y-94187500D02*
X105013700Y-94013700D01*
D44*
X105013700Y-93513700D02*
X105013700Y-94013700D01*
X105013700Y-93986300D02*
X105263700Y-93736300D01*
X105013700Y-94013700D02*
X105013700Y-93986300D01*
X105013700Y-94013700D02*
X105263700Y-93763700D01*
D41*
X98000000Y-89067000D02*
X98000000Y-91900000D01*
X98267000Y-88800000D02*
X98000000Y-89067000D01*
X99400000Y-88800000D02*
X98267000Y-88800000D01*
X98000000Y-91900000D02*
X99050000Y-92950000D01*
D44*
X99050000Y-92950000D02*
X99637500Y-93537500D01*
D46*
X119800000Y-81600000D02*
X119800000Y-86800000D01*
X121400000Y-88400000D02*
X124200000Y-88400000D01*
X119800000Y-86800000D02*
X121400000Y-88400000D01*
X119800000Y-81600000D02*
X119800000Y-79060000D01*
D43*
X103687500Y-93312500D02*
X105000000Y-92000000D01*
X105000000Y-91203200D02*
X105000000Y-90600000D01*
X103687500Y-93537500D02*
X103687500Y-93312500D01*
X105000000Y-92000000D02*
X105000000Y-91203200D01*
X102187500Y-92874620D02*
X102209610Y-92852510D01*
X102209610Y-90809610D02*
X102200000Y-90800000D01*
X102187500Y-93537500D02*
X102187500Y-92874620D01*
X102209610Y-92852510D02*
X102209610Y-90809610D01*
X99400000Y-91153200D02*
X99400000Y-90550000D01*
X99400000Y-91503200D02*
X99400000Y-90800000D01*
X99400000Y-91696800D02*
X99400000Y-91503200D01*
X100687500Y-92984300D02*
X99400000Y-91696800D01*
X100687500Y-93537500D02*
X100687500Y-92984300D01*
D44*
X100600981Y-92899019D02*
X100552490Y-92850528D01*
X99400000Y-90800000D02*
X99400000Y-91698038D01*
X99400000Y-91698038D02*
X100600981Y-92899019D01*
D45*
X102687500Y-99287500D02*
X103100000Y-99700000D01*
D41*
X103100000Y-99700000D02*
X102744103Y-99344103D01*
X103100000Y-99700000D02*
X103100000Y-100800000D01*
D43*
X102744103Y-99334097D02*
X102744103Y-99344103D01*
X103187500Y-98890700D02*
X102744103Y-99334097D01*
X103187500Y-98337500D02*
X103187500Y-98890700D01*
X102687500Y-99287500D02*
X102744103Y-99344103D01*
X102687500Y-98337500D02*
X102687500Y-99287500D01*
D40*
X103100000Y-101078702D02*
X103100000Y-100800000D01*
X103742799Y-101721501D02*
X103100000Y-101078702D01*
X106756501Y-101721501D02*
X103742799Y-101721501D01*
X108450000Y-103415000D02*
X106756501Y-101721501D01*
X108450000Y-104800000D02*
X108450000Y-103415000D01*
D46*
X108450000Y-107830000D02*
X108450000Y-106439001D01*
X108450000Y-109850000D02*
X108450000Y-107830000D01*
X108450000Y-114750000D02*
X108450000Y-111489001D01*
D43*
X101621800Y-109850000D02*
X102150000Y-109850000D01*
X101600000Y-109828200D02*
X101621800Y-109850000D01*
D46*
X101700000Y-107830000D02*
X101700000Y-106439001D01*
X101700000Y-109850000D02*
X101700000Y-107830000D01*
D43*
X101700000Y-114500000D02*
X102050000Y-114850000D01*
D46*
X101700000Y-114750000D02*
X101700000Y-111489001D01*
X94950000Y-107830000D02*
X94950000Y-106439001D01*
X94950000Y-109850000D02*
X94950000Y-107830000D01*
X94950000Y-112130000D02*
X94950000Y-111489001D01*
X94950000Y-114450000D02*
X94950000Y-112130000D01*
D44*
X104520000Y-81002081D02*
X104520000Y-79800000D01*
X104520000Y-81484000D02*
X104520000Y-81002081D01*
X103604000Y-82400000D02*
X104520000Y-81484000D01*
X103000000Y-82400000D02*
X103604000Y-82400000D01*
D43*
X103737609Y-99158932D02*
X104080508Y-99501831D01*
X103687500Y-98337500D02*
X103687500Y-99108823D01*
X103687500Y-99108823D02*
X103737609Y-99158932D01*
D42*
X111200000Y-84800000D02*
X110619000Y-84800000D01*
X110619000Y-84800000D02*
X100379038Y-84800000D01*
D43*
X98412500Y-94187500D02*
X99537500Y-94187500D01*
X98400000Y-94200000D02*
X98412500Y-94187500D01*
X98712500Y-97687500D02*
X98400000Y-98000000D01*
X99537500Y-97687500D02*
X98712500Y-97687500D01*
X98412500Y-95187500D02*
X98400000Y-95200000D01*
X99537500Y-95187500D02*
X98412500Y-95187500D01*
X98512500Y-94687500D02*
X98400000Y-94800000D01*
X99537500Y-94687500D02*
X98512500Y-94687500D01*
X98400000Y-95200000D02*
X98400000Y-94800000D01*
X98400000Y-94800000D02*
X98400000Y-94200000D01*
X98400000Y-95200000D02*
X98400000Y-95488990D01*
X99537500Y-95687500D02*
X98887500Y-95687500D01*
X98400000Y-95488990D02*
X98488990Y-95488990D01*
X98598510Y-95687500D02*
X98400000Y-95488990D01*
X99537500Y-95687500D02*
X98598510Y-95687500D01*
D42*
X98400000Y-94200000D02*
X98000000Y-94200000D01*
X98000000Y-94200000D02*
X97000000Y-93200000D01*
X97000000Y-93200000D02*
X97000000Y-87000000D01*
X99200000Y-84800000D02*
X100800000Y-84800000D01*
X97000000Y-87000000D02*
X99200000Y-84800000D01*
X111200000Y-84800000D02*
X100800000Y-84800000D01*
X100800000Y-84800000D02*
X100525102Y-84800000D01*
D43*
X98737500Y-98337500D02*
X98400000Y-98000000D01*
X100187500Y-98337500D02*
X98737500Y-98337500D01*
D42*
X111850000Y-82194000D02*
X111456000Y-81800000D01*
X111850000Y-82900000D02*
X111850000Y-82194000D01*
X111456000Y-81800000D02*
X110200000Y-81800000D01*
X109600000Y-81200000D02*
X109600000Y-79800000D01*
X110200000Y-81800000D02*
X109600000Y-81200000D01*
X112500000Y-82194000D02*
X112694000Y-82000000D01*
X112500000Y-82900000D02*
X112500000Y-82194000D01*
X112694000Y-82000000D02*
X114000000Y-82000000D01*
X114680000Y-81320000D02*
X114680000Y-79800000D01*
X114000000Y-82000000D02*
X114680000Y-81320000D01*
D41*
X120550000Y-105200000D02*
X120650000Y-105300000D01*
X118000000Y-105200000D02*
X120550000Y-105200000D01*
D43*
X94400000Y-95400000D02*
X93400000Y-95400000D01*
D44*
X93000000Y-95400000D02*
X93400000Y-95400000D01*
D43*
X94400000Y-92700000D02*
X94400000Y-95400000D01*
D40*
X93000000Y-95400000D02*
X93000000Y-97600000D01*
D43*
X98053718Y-96687500D02*
X95687500Y-96687500D01*
X95687500Y-96687500D02*
X94400000Y-95400000D01*
X98064719Y-96698501D02*
X98053718Y-96687500D01*
X98973299Y-96698501D02*
X98064719Y-96698501D01*
X99537500Y-96687500D02*
X98984300Y-96687500D01*
X98984300Y-96687500D02*
X98973299Y-96698501D01*
X101687500Y-99574618D02*
X101687500Y-100787500D01*
X102187500Y-98337500D02*
X102187500Y-98562500D01*
D41*
X101700000Y-99777644D02*
X101862008Y-99615636D01*
X101700000Y-100800000D02*
X101700000Y-99777644D01*
X101862008Y-99615636D02*
X101862008Y-99400000D01*
D45*
X101687500Y-99225492D02*
X101862008Y-99400000D01*
X101687500Y-98337500D02*
X101687500Y-99225492D01*
X101687500Y-100787500D02*
X101700000Y-100800000D01*
X101687500Y-98337500D02*
X101687500Y-100787500D01*
D43*
X102187500Y-99074508D02*
X101862008Y-99400000D01*
X102187500Y-98337500D02*
X102187500Y-99074508D01*
X101687500Y-99765144D02*
X101700000Y-99777644D01*
X101687500Y-99574618D02*
X101687500Y-99765144D01*
X101709609Y-99552509D02*
X101687500Y-99574618D01*
X101709609Y-99047491D02*
X101709609Y-99552509D01*
X101687500Y-99025382D02*
X101709609Y-99047491D01*
X101687500Y-98337500D02*
X101687500Y-99025382D01*
D40*
X101700000Y-104800000D02*
X101700000Y-100800000D01*
D43*
X101187500Y-98337500D02*
X101187500Y-99212500D01*
X101096800Y-99300000D02*
X101100000Y-99300000D01*
X100687500Y-98890700D02*
X101096800Y-99300000D01*
X100687500Y-98337500D02*
X100687500Y-98890700D01*
D41*
X100600000Y-99800000D02*
X101100000Y-99300000D01*
X98900000Y-99800000D02*
X100600000Y-99800000D01*
D40*
X98900000Y-100785000D02*
X98900000Y-99800000D01*
X98900000Y-100900000D02*
X98900000Y-100785000D01*
X95000000Y-104800000D02*
X98900000Y-100900000D01*
X94950000Y-104800000D02*
X95000000Y-104800000D01*
D44*
G36*
X95641034Y-102811928D02*
G01*
X91950000Y-102811928D01*
X91825518Y-102824188D01*
X91705820Y-102860498D01*
X91595506Y-102919463D01*
X91498815Y-102998815D01*
X91419463Y-103095506D01*
X91360498Y-103205820D01*
X91324188Y-103325518D01*
X91311928Y-103450000D01*
X91311928Y-105550000D01*
X91324188Y-105674482D01*
X91360498Y-105794180D01*
X91419463Y-105904494D01*
X91498815Y-106001185D01*
X91595506Y-106080537D01*
X91705820Y-106139502D01*
X91825518Y-106175812D01*
X91950000Y-106188072D01*
X93311928Y-106188072D01*
X93311928Y-106850000D01*
X93324188Y-106974482D01*
X93360498Y-107094180D01*
X93419463Y-107204494D01*
X93498815Y-107301185D01*
X93595506Y-107380537D01*
X93680000Y-107425701D01*
X93680000Y-107861928D01*
X91950000Y-107861928D01*
X91825518Y-107874188D01*
X91705820Y-107910498D01*
X91595506Y-107969463D01*
X91498815Y-108048815D01*
X91419463Y-108145506D01*
X91360498Y-108255820D01*
X91324188Y-108375518D01*
X91311928Y-108500000D01*
X91311928Y-110600000D01*
X91324188Y-110724482D01*
X91360498Y-110844180D01*
X91419463Y-110954494D01*
X91498815Y-111051185D01*
X91595506Y-111130537D01*
X91705820Y-111189502D01*
X91825518Y-111225812D01*
X91950000Y-111238072D01*
X93311928Y-111238072D01*
X93311928Y-111900000D01*
X93324188Y-112024482D01*
X93360498Y-112144180D01*
X93419463Y-112254494D01*
X93498815Y-112351185D01*
X93595506Y-112430537D01*
X93680001Y-112475701D01*
X93680001Y-112761928D01*
X91950000Y-112761928D01*
X91825518Y-112774188D01*
X91705820Y-112810498D01*
X91595506Y-112869463D01*
X91498815Y-112948815D01*
X91419463Y-113045506D01*
X91360498Y-113155820D01*
X91324188Y-113275518D01*
X91311928Y-113400000D01*
X91311928Y-115500000D01*
X91324188Y-115624482D01*
X91360498Y-115744180D01*
X91419463Y-115854494D01*
X91498815Y-115951185D01*
X91595506Y-116030537D01*
X91705820Y-116089502D01*
X91825518Y-116125812D01*
X91950000Y-116138072D01*
X97950000Y-116138072D01*
X98074482Y-116125812D01*
X98194180Y-116089502D01*
X98304494Y-116030537D01*
X98325000Y-116013708D01*
X98345506Y-116030537D01*
X98455820Y-116089502D01*
X98575518Y-116125812D01*
X98700000Y-116138072D01*
X104700000Y-116138072D01*
X104824482Y-116125812D01*
X104944180Y-116089502D01*
X105054494Y-116030537D01*
X105075000Y-116013708D01*
X105095506Y-116030537D01*
X105205820Y-116089502D01*
X105325518Y-116125812D01*
X105450000Y-116138072D01*
X111450000Y-116138072D01*
X111574482Y-116125812D01*
X111694180Y-116089502D01*
X111804494Y-116030537D01*
X111901185Y-115951185D01*
X111980537Y-115854494D01*
X112039502Y-115744180D01*
X112075812Y-115624482D01*
X112088072Y-115500000D01*
X112088072Y-113400000D01*
X112075812Y-113275518D01*
X112039502Y-113155820D01*
X111980537Y-113045506D01*
X111901185Y-112948815D01*
X111804494Y-112869463D01*
X111694180Y-112810498D01*
X111574482Y-112774188D01*
X111450000Y-112761928D01*
X109720000Y-112761928D01*
X109720000Y-112475701D01*
X109804494Y-112430537D01*
X109901185Y-112351185D01*
X109980537Y-112254494D01*
X110039502Y-112144180D01*
X110075812Y-112024482D01*
X110088072Y-111900000D01*
X110088072Y-111238072D01*
X111450000Y-111238072D01*
X111574482Y-111225812D01*
X111694180Y-111189502D01*
X111804494Y-111130537D01*
X111901185Y-111051185D01*
X111980537Y-110954494D01*
X112039502Y-110844180D01*
X112075812Y-110724482D01*
X112088072Y-110600000D01*
X112088072Y-108500000D01*
X112075812Y-108375518D01*
X112039502Y-108255820D01*
X111980537Y-108145506D01*
X111901185Y-108048815D01*
X111804494Y-107969463D01*
X111694180Y-107910498D01*
X111574482Y-107874188D01*
X111450000Y-107861928D01*
X109720000Y-107861928D01*
X109720000Y-107425701D01*
X109804494Y-107380537D01*
X109901185Y-107301185D01*
X109980537Y-107204494D01*
X110039502Y-107094180D01*
X110075812Y-106974482D01*
X110088072Y-106850000D01*
X110088072Y-106188072D01*
X111450000Y-106188072D01*
X111574482Y-106175812D01*
X111694180Y-106139502D01*
X111804494Y-106080537D01*
X111901185Y-106001185D01*
X111980537Y-105904494D01*
X112039502Y-105794180D01*
X112075812Y-105674482D01*
X112088072Y-105550000D01*
X112088072Y-103450000D01*
X112075812Y-103325518D01*
X112039502Y-103205820D01*
X111980537Y-103095506D01*
X111901185Y-102998815D01*
X111804494Y-102919463D01*
X111694180Y-102860498D01*
X111574482Y-102824188D01*
X111450000Y-102811928D01*
X109187267Y-102811928D01*
X109126778Y-102738222D01*
X109090436Y-102708397D01*
X107463108Y-101081070D01*
X107433279Y-101044723D01*
X107289832Y-100927000D01*
X115273000Y-100927000D01*
X115273000Y-124315000D01*
X88527000Y-124315000D01*
X88527000Y-100927000D01*
X97525961Y-100927000D01*
X95641034Y-102811928D01*
X95641034Y-102811928D01*
G37*
X95641034Y-102811928D02*
X91950000Y-102811928D01*
X91825518Y-102824188D01*
X91705820Y-102860498D01*
X91595506Y-102919463D01*
X91498815Y-102998815D01*
X91419463Y-103095506D01*
X91360498Y-103205820D01*
X91324188Y-103325518D01*
X91311928Y-103450000D01*
X91311928Y-105550000D01*
X91324188Y-105674482D01*
X91360498Y-105794180D01*
X91419463Y-105904494D01*
X91498815Y-106001185D01*
X91595506Y-106080537D01*
X91705820Y-106139502D01*
X91825518Y-106175812D01*
X91950000Y-106188072D01*
X93311928Y-106188072D01*
X93311928Y-106850000D01*
X93324188Y-106974482D01*
X93360498Y-107094180D01*
X93419463Y-107204494D01*
X93498815Y-107301185D01*
X93595506Y-107380537D01*
X93680000Y-107425701D01*
X93680000Y-107861928D01*
X91950000Y-107861928D01*
X91825518Y-107874188D01*
X91705820Y-107910498D01*
X91595506Y-107969463D01*
X91498815Y-108048815D01*
X91419463Y-108145506D01*
X91360498Y-108255820D01*
X91324188Y-108375518D01*
X91311928Y-108500000D01*
X91311928Y-110600000D01*
X91324188Y-110724482D01*
X91360498Y-110844180D01*
X91419463Y-110954494D01*
X91498815Y-111051185D01*
X91595506Y-111130537D01*
X91705820Y-111189502D01*
X91825518Y-111225812D01*
X91950000Y-111238072D01*
X93311928Y-111238072D01*
X93311928Y-111900000D01*
X93324188Y-112024482D01*
X93360498Y-112144180D01*
X93419463Y-112254494D01*
X93498815Y-112351185D01*
X93595506Y-112430537D01*
X93680001Y-112475701D01*
X93680001Y-112761928D01*
X91950000Y-112761928D01*
X91825518Y-112774188D01*
X91705820Y-112810498D01*
X91595506Y-112869463D01*
X91498815Y-112948815D01*
X91419463Y-113045506D01*
X91360498Y-113155820D01*
X91324188Y-113275518D01*
X91311928Y-113400000D01*
X91311928Y-115500000D01*
X91324188Y-115624482D01*
X91360498Y-115744180D01*
X91419463Y-115854494D01*
X91498815Y-115951185D01*
X91595506Y-116030537D01*
X91705820Y-116089502D01*
X91825518Y-116125812D01*
X91950000Y-116138072D01*
X97950000Y-116138072D01*
X98074482Y-116125812D01*
X98194180Y-116089502D01*
X98304494Y-116030537D01*
X98325000Y-116013708D01*
X98345506Y-116030537D01*
X98455820Y-116089502D01*
X98575518Y-116125812D01*
X98700000Y-116138072D01*
X104700000Y-116138072D01*
X104824482Y-116125812D01*
X104944180Y-116089502D01*
X105054494Y-116030537D01*
X105075000Y-116013708D01*
X105095506Y-116030537D01*
X105205820Y-116089502D01*
X105325518Y-116125812D01*
X105450000Y-116138072D01*
X111450000Y-116138072D01*
X111574482Y-116125812D01*
X111694180Y-116089502D01*
X111804494Y-116030537D01*
X111901185Y-115951185D01*
X111980537Y-115854494D01*
X112039502Y-115744180D01*
X112075812Y-115624482D01*
X112088072Y-115500000D01*
X112088072Y-113400000D01*
X112075812Y-113275518D01*
X112039502Y-113155820D01*
X111980537Y-113045506D01*
X111901185Y-112948815D01*
X111804494Y-112869463D01*
X111694180Y-112810498D01*
X111574482Y-112774188D01*
X111450000Y-112761928D01*
X109720000Y-112761928D01*
X109720000Y-112475701D01*
X109804494Y-112430537D01*
X109901185Y-112351185D01*
X109980537Y-112254494D01*
X110039502Y-112144180D01*
X110075812Y-112024482D01*
X110088072Y-111900000D01*
X110088072Y-111238072D01*
X111450000Y-111238072D01*
X111574482Y-111225812D01*
X111694180Y-111189502D01*
X111804494Y-111130537D01*
X111901185Y-111051185D01*
X111980537Y-110954494D01*
X112039502Y-110844180D01*
X112075812Y-110724482D01*
X112088072Y-110600000D01*
X112088072Y-108500000D01*
X112075812Y-108375518D01*
X112039502Y-108255820D01*
X111980537Y-108145506D01*
X111901185Y-108048815D01*
X111804494Y-107969463D01*
X111694180Y-107910498D01*
X111574482Y-107874188D01*
X111450000Y-107861928D01*
X109720000Y-107861928D01*
X109720000Y-107425701D01*
X109804494Y-107380537D01*
X109901185Y-107301185D01*
X109980537Y-107204494D01*
X110039502Y-107094180D01*
X110075812Y-106974482D01*
X110088072Y-106850000D01*
X110088072Y-106188072D01*
X111450000Y-106188072D01*
X111574482Y-106175812D01*
X111694180Y-106139502D01*
X111804494Y-106080537D01*
X111901185Y-106001185D01*
X111980537Y-105904494D01*
X112039502Y-105794180D01*
X112075812Y-105674482D01*
X112088072Y-105550000D01*
X112088072Y-103450000D01*
X112075812Y-103325518D01*
X112039502Y-103205820D01*
X111980537Y-103095506D01*
X111901185Y-102998815D01*
X111804494Y-102919463D01*
X111694180Y-102860498D01*
X111574482Y-102824188D01*
X111450000Y-102811928D01*
X109187267Y-102811928D01*
X109126778Y-102738222D01*
X109090436Y-102708397D01*
X107463108Y-101081070D01*
X107433279Y-101044723D01*
X107289832Y-100927000D01*
X115273000Y-100927000D01*
X115273000Y-124315000D01*
X88527000Y-124315000D01*
X88527000Y-100927000D01*
X97525961Y-100927000D01*
X95641034Y-102811928D01*
G36*
X100747500Y-102811928D02*
G01*
X98700000Y-102811928D01*
X98575518Y-102824188D01*
X98455820Y-102860498D01*
X98345506Y-102919463D01*
X98325000Y-102936292D01*
X98304494Y-102919463D01*
X98254369Y-102892670D01*
X99540436Y-101606603D01*
X99576778Y-101576778D01*
X99695806Y-101431741D01*
X99784252Y-101266269D01*
X99838717Y-101086723D01*
X99852500Y-100946785D01*
X99852500Y-100946784D01*
X99854449Y-100927000D01*
X100747501Y-100927000D01*
X100747500Y-102811928D01*
X100747500Y-102811928D01*
G37*
X100747500Y-102811928D02*
X98700000Y-102811928D01*
X98575518Y-102824188D01*
X98455820Y-102860498D01*
X98345506Y-102919463D01*
X98325000Y-102936292D01*
X98304494Y-102919463D01*
X98254369Y-102892670D01*
X99540436Y-101606603D01*
X99576778Y-101576778D01*
X99695806Y-101431741D01*
X99784252Y-101266269D01*
X99838717Y-101086723D01*
X99852500Y-100946785D01*
X99852500Y-100946784D01*
X99854449Y-100927000D01*
X100747501Y-100927000D01*
X100747500Y-102811928D01*
G36*
X122215000Y-87030000D02*
G01*
X127073000Y-87030000D01*
X127073000Y-90673000D01*
X118096033Y-90673000D01*
X118076185Y-90648815D01*
X117979494Y-90569463D01*
X117869180Y-90510498D01*
X117749482Y-90474188D01*
X117625000Y-90461928D01*
X116375000Y-90461928D01*
X116250518Y-90474188D01*
X116130820Y-90510498D01*
X116020506Y-90569463D01*
X116000000Y-90586292D01*
X115979494Y-90569463D01*
X115869180Y-90510498D01*
X115749482Y-90474188D01*
X115625000Y-90461928D01*
X114375000Y-90461928D01*
X114250518Y-90474188D01*
X114130820Y-90510498D01*
X114020506Y-90569463D01*
X113923815Y-90648815D01*
X113903967Y-90673000D01*
X108750000Y-90673000D01*
X108725224Y-90675440D01*
X108701399Y-90682667D01*
X108669969Y-90701390D01*
X105254950Y-93473000D01*
X104568709Y-93473000D01*
X105495273Y-92546437D01*
X105523374Y-92523375D01*
X105546437Y-92495273D01*
X105546442Y-92495268D01*
X105615423Y-92411214D01*
X105615425Y-92411212D01*
X105683822Y-92283249D01*
X105725942Y-92144399D01*
X105736600Y-92036186D01*
X105736600Y-92036177D01*
X105740163Y-92000001D01*
X105737893Y-91976953D01*
X105749482Y-91975812D01*
X105869180Y-91939502D01*
X105979494Y-91880537D01*
X106076185Y-91801185D01*
X106155537Y-91704494D01*
X106214502Y-91594180D01*
X106250812Y-91474482D01*
X106263072Y-91350000D01*
X106263072Y-90350000D01*
X106250812Y-90225518D01*
X106214502Y-90105820D01*
X106155537Y-89995506D01*
X106076185Y-89898815D01*
X105979494Y-89819463D01*
X105869180Y-89760498D01*
X105749482Y-89724188D01*
X105625000Y-89711928D01*
X104375000Y-89711928D01*
X104250518Y-89724188D01*
X104130820Y-89760498D01*
X104020506Y-89819463D01*
X103923815Y-89898815D01*
X103844463Y-89995506D01*
X103785498Y-90105820D01*
X103749188Y-90225518D01*
X103736928Y-90350000D01*
X103736928Y-91350000D01*
X103749188Y-91474482D01*
X103785498Y-91594180D01*
X103844463Y-91704494D01*
X103923815Y-91801185D01*
X104020506Y-91880537D01*
X104057812Y-91900478D01*
X103378569Y-92579722D01*
X103318320Y-92597998D01*
X103208006Y-92656963D01*
X103111315Y-92736315D01*
X103031963Y-92833006D01*
X102972998Y-92943320D01*
X102937500Y-93060341D01*
X102926905Y-93025414D01*
X102935552Y-92996909D01*
X102946210Y-92888696D01*
X102946210Y-92888687D01*
X102949773Y-92852511D01*
X102946210Y-92816335D01*
X102946210Y-91926134D01*
X102949482Y-91925812D01*
X103069180Y-91889502D01*
X103179494Y-91830537D01*
X103276185Y-91751185D01*
X103355537Y-91654494D01*
X103414502Y-91544180D01*
X103450812Y-91424482D01*
X103463072Y-91300000D01*
X103463072Y-90300000D01*
X103450812Y-90175518D01*
X103414502Y-90055820D01*
X103355537Y-89945506D01*
X103276185Y-89848815D01*
X103179494Y-89769463D01*
X103069180Y-89710498D01*
X102949482Y-89674188D01*
X102825000Y-89661928D01*
X101575000Y-89661928D01*
X101450518Y-89674188D01*
X101330820Y-89710498D01*
X101220506Y-89769463D01*
X101123815Y-89848815D01*
X101044463Y-89945506D01*
X100985498Y-90055820D01*
X100949188Y-90175518D01*
X100936928Y-90300000D01*
X100936928Y-91300000D01*
X100949188Y-91424482D01*
X100985498Y-91544180D01*
X101044463Y-91654494D01*
X101123815Y-91751185D01*
X101220506Y-91830537D01*
X101330820Y-91889502D01*
X101450518Y-91925812D01*
X101473010Y-91928027D01*
X101473010Y-92692469D01*
X101461558Y-92730221D01*
X101451435Y-92833006D01*
X101447336Y-92874620D01*
X101450900Y-92910803D01*
X101450900Y-93016167D01*
X101437500Y-93060341D01*
X101424421Y-93017226D01*
X101427664Y-92984300D01*
X101413442Y-92839901D01*
X101383187Y-92740164D01*
X101371322Y-92701051D01*
X101302924Y-92573087D01*
X101290143Y-92557513D01*
X101268122Y-92530680D01*
X101237626Y-92473626D01*
X101166260Y-92386668D01*
X100500793Y-91721201D01*
X100555537Y-91654494D01*
X100614502Y-91544180D01*
X100650812Y-91424482D01*
X100663072Y-91300000D01*
X100663072Y-90300000D01*
X100650812Y-90175518D01*
X100614502Y-90055820D01*
X100555537Y-89945506D01*
X100476185Y-89848815D01*
X100379494Y-89769463D01*
X100269180Y-89710498D01*
X100149482Y-89674188D01*
X100025000Y-89661928D01*
X98827000Y-89661928D01*
X98827000Y-87354627D01*
X100650913Y-85626710D01*
X100861452Y-85625500D01*
X110608906Y-85625500D01*
X110645506Y-85655537D01*
X110755820Y-85714502D01*
X110875518Y-85750812D01*
X111000000Y-85763072D01*
X111400000Y-85763072D01*
X111524482Y-85750812D01*
X111644180Y-85714502D01*
X111754494Y-85655537D01*
X111850000Y-85577158D01*
X111945506Y-85655537D01*
X112055820Y-85714502D01*
X112175518Y-85750812D01*
X112300000Y-85763072D01*
X112700000Y-85763072D01*
X112824482Y-85750812D01*
X112944180Y-85714502D01*
X112961487Y-85705251D01*
X113040415Y-85823375D01*
X113176625Y-85959585D01*
X113336790Y-86066604D01*
X113514757Y-86140320D01*
X113703685Y-86177900D01*
X113896315Y-86177900D01*
X114085243Y-86140320D01*
X114263210Y-86066604D01*
X114423375Y-85959585D01*
X114559585Y-85823375D01*
X114666604Y-85663210D01*
X114715203Y-85545880D01*
X118000382Y-85527000D01*
X122215000Y-85527000D01*
X122215000Y-87030000D01*
X122215000Y-87030000D01*
G37*
X122215000Y-87030000D02*
X127073000Y-87030000D01*
X127073000Y-90673000D01*
X118096033Y-90673000D01*
X118076185Y-90648815D01*
X117979494Y-90569463D01*
X117869180Y-90510498D01*
X117749482Y-90474188D01*
X117625000Y-90461928D01*
X116375000Y-90461928D01*
X116250518Y-90474188D01*
X116130820Y-90510498D01*
X116020506Y-90569463D01*
X116000000Y-90586292D01*
X115979494Y-90569463D01*
X115869180Y-90510498D01*
X115749482Y-90474188D01*
X115625000Y-90461928D01*
X114375000Y-90461928D01*
X114250518Y-90474188D01*
X114130820Y-90510498D01*
X114020506Y-90569463D01*
X113923815Y-90648815D01*
X113903967Y-90673000D01*
X108750000Y-90673000D01*
X108725224Y-90675440D01*
X108701399Y-90682667D01*
X108669969Y-90701390D01*
X105254950Y-93473000D01*
X104568709Y-93473000D01*
X105495273Y-92546437D01*
X105523374Y-92523375D01*
X105546437Y-92495273D01*
X105546442Y-92495268D01*
X105615423Y-92411214D01*
X105615425Y-92411212D01*
X105683822Y-92283249D01*
X105725942Y-92144399D01*
X105736600Y-92036186D01*
X105736600Y-92036177D01*
X105740163Y-92000001D01*
X105737893Y-91976953D01*
X105749482Y-91975812D01*
X105869180Y-91939502D01*
X105979494Y-91880537D01*
X106076185Y-91801185D01*
X106155537Y-91704494D01*
X106214502Y-91594180D01*
X106250812Y-91474482D01*
X106263072Y-91350000D01*
X106263072Y-90350000D01*
X106250812Y-90225518D01*
X106214502Y-90105820D01*
X106155537Y-89995506D01*
X106076185Y-89898815D01*
X105979494Y-89819463D01*
X105869180Y-89760498D01*
X105749482Y-89724188D01*
X105625000Y-89711928D01*
X104375000Y-89711928D01*
X104250518Y-89724188D01*
X104130820Y-89760498D01*
X104020506Y-89819463D01*
X103923815Y-89898815D01*
X103844463Y-89995506D01*
X103785498Y-90105820D01*
X103749188Y-90225518D01*
X103736928Y-90350000D01*
X103736928Y-91350000D01*
X103749188Y-91474482D01*
X103785498Y-91594180D01*
X103844463Y-91704494D01*
X103923815Y-91801185D01*
X104020506Y-91880537D01*
X104057812Y-91900478D01*
X103378569Y-92579722D01*
X103318320Y-92597998D01*
X103208006Y-92656963D01*
X103111315Y-92736315D01*
X103031963Y-92833006D01*
X102972998Y-92943320D01*
X102937500Y-93060341D01*
X102926905Y-93025414D01*
X102935552Y-92996909D01*
X102946210Y-92888696D01*
X102946210Y-92888687D01*
X102949773Y-92852511D01*
X102946210Y-92816335D01*
X102946210Y-91926134D01*
X102949482Y-91925812D01*
X103069180Y-91889502D01*
X103179494Y-91830537D01*
X103276185Y-91751185D01*
X103355537Y-91654494D01*
X103414502Y-91544180D01*
X103450812Y-91424482D01*
X103463072Y-91300000D01*
X103463072Y-90300000D01*
X103450812Y-90175518D01*
X103414502Y-90055820D01*
X103355537Y-89945506D01*
X103276185Y-89848815D01*
X103179494Y-89769463D01*
X103069180Y-89710498D01*
X102949482Y-89674188D01*
X102825000Y-89661928D01*
X101575000Y-89661928D01*
X101450518Y-89674188D01*
X101330820Y-89710498D01*
X101220506Y-89769463D01*
X101123815Y-89848815D01*
X101044463Y-89945506D01*
X100985498Y-90055820D01*
X100949188Y-90175518D01*
X100936928Y-90300000D01*
X100936928Y-91300000D01*
X100949188Y-91424482D01*
X100985498Y-91544180D01*
X101044463Y-91654494D01*
X101123815Y-91751185D01*
X101220506Y-91830537D01*
X101330820Y-91889502D01*
X101450518Y-91925812D01*
X101473010Y-91928027D01*
X101473010Y-92692469D01*
X101461558Y-92730221D01*
X101451435Y-92833006D01*
X101447336Y-92874620D01*
X101450900Y-92910803D01*
X101450900Y-93016167D01*
X101437500Y-93060341D01*
X101424421Y-93017226D01*
X101427664Y-92984300D01*
X101413442Y-92839901D01*
X101383187Y-92740164D01*
X101371322Y-92701051D01*
X101302924Y-92573087D01*
X101290143Y-92557513D01*
X101268122Y-92530680D01*
X101237626Y-92473626D01*
X101166260Y-92386668D01*
X100500793Y-91721201D01*
X100555537Y-91654494D01*
X100614502Y-91544180D01*
X100650812Y-91424482D01*
X100663072Y-91300000D01*
X100663072Y-90300000D01*
X100650812Y-90175518D01*
X100614502Y-90055820D01*
X100555537Y-89945506D01*
X100476185Y-89848815D01*
X100379494Y-89769463D01*
X100269180Y-89710498D01*
X100149482Y-89674188D01*
X100025000Y-89661928D01*
X98827000Y-89661928D01*
X98827000Y-87354627D01*
X100650913Y-85626710D01*
X100861452Y-85625500D01*
X110608906Y-85625500D01*
X110645506Y-85655537D01*
X110755820Y-85714502D01*
X110875518Y-85750812D01*
X111000000Y-85763072D01*
X111400000Y-85763072D01*
X111524482Y-85750812D01*
X111644180Y-85714502D01*
X111754494Y-85655537D01*
X111850000Y-85577158D01*
X111945506Y-85655537D01*
X112055820Y-85714502D01*
X112175518Y-85750812D01*
X112300000Y-85763072D01*
X112700000Y-85763072D01*
X112824482Y-85750812D01*
X112944180Y-85714502D01*
X112961487Y-85705251D01*
X113040415Y-85823375D01*
X113176625Y-85959585D01*
X113336790Y-86066604D01*
X113514757Y-86140320D01*
X113703685Y-86177900D01*
X113896315Y-86177900D01*
X114085243Y-86140320D01*
X114263210Y-86066604D01*
X114423375Y-85959585D01*
X114559585Y-85823375D01*
X114666604Y-85663210D01*
X114715203Y-85545880D01*
X118000382Y-85527000D01*
X122215000Y-85527000D01*
X122215000Y-87030000D01*
G36*
X98834721Y-92210389D02*
G01*
X98858579Y-92239460D01*
X98887649Y-92263317D01*
X99924428Y-93300096D01*
X99924428Y-93428065D01*
X99887500Y-93424428D01*
X99187500Y-93424428D01*
X99063018Y-93436688D01*
X99016167Y-93450900D01*
X98827000Y-93450900D01*
X98827000Y-92200981D01*
X98834721Y-92210389D01*
X98834721Y-92210389D01*
G37*
X98834721Y-92210389D02*
X98858579Y-92239460D01*
X98887649Y-92263317D01*
X99924428Y-93300096D01*
X99924428Y-93428065D01*
X99887500Y-93424428D01*
X99187500Y-93424428D01*
X99063018Y-93436688D01*
X99016167Y-93450900D01*
X98827000Y-93450900D01*
X98827000Y-92200981D01*
X98834721Y-92210389D01*
G36*
X115127000Y-92576250D02*
G01*
X115285750Y-92735000D01*
X115625000Y-92738072D01*
X115749482Y-92725812D01*
X115869180Y-92689502D01*
X115979494Y-92630537D01*
X116000000Y-92613708D01*
X116020506Y-92630537D01*
X116130820Y-92689502D01*
X116250518Y-92725812D01*
X116375000Y-92738072D01*
X116714250Y-92735000D01*
X116873000Y-92576250D01*
X116873000Y-91727000D01*
X117127000Y-91727000D01*
X117127000Y-92576250D01*
X117285750Y-92735000D01*
X117625000Y-92738072D01*
X117749482Y-92725812D01*
X117869180Y-92689502D01*
X117979494Y-92630537D01*
X118076185Y-92551185D01*
X118155537Y-92454494D01*
X118214502Y-92344180D01*
X118250812Y-92224482D01*
X118263072Y-92100000D01*
X118260000Y-91885750D01*
X118101252Y-91727002D01*
X118260000Y-91727002D01*
X118260000Y-91727000D01*
X123017159Y-91727000D01*
X122887952Y-91988347D01*
X124200000Y-93300395D01*
X125512048Y-91988347D01*
X125382841Y-91727000D01*
X126881486Y-91727000D01*
X126881486Y-94861278D01*
X125869765Y-95873000D01*
X114977900Y-95873000D01*
X114977900Y-95703685D01*
X114940320Y-95514757D01*
X114866604Y-95336790D01*
X114759585Y-95176625D01*
X114623375Y-95040415D01*
X114520466Y-94971653D01*
X122887952Y-94971653D01*
X123043962Y-95287214D01*
X123418745Y-95478020D01*
X123823551Y-95592044D01*
X124242824Y-95624902D01*
X124660451Y-95575334D01*
X125060383Y-95445243D01*
X125356038Y-95287214D01*
X125512048Y-94971653D01*
X124200000Y-93659605D01*
X122887952Y-94971653D01*
X114520466Y-94971653D01*
X114463210Y-94933396D01*
X114285243Y-94859680D01*
X114096315Y-94822100D01*
X113903685Y-94822100D01*
X113714757Y-94859680D01*
X113536790Y-94933396D01*
X113376625Y-95040415D01*
X113240415Y-95176625D01*
X113133396Y-95336790D01*
X113059680Y-95514757D01*
X113022100Y-95703685D01*
X113022100Y-95873000D01*
X111660591Y-95873000D01*
X111663072Y-95700000D01*
X111650812Y-95575518D01*
X111614502Y-95455820D01*
X111555537Y-95345506D01*
X111476185Y-95248815D01*
X111379494Y-95169463D01*
X111269180Y-95110498D01*
X111149482Y-95074188D01*
X111025000Y-95061928D01*
X110685750Y-95065000D01*
X110527000Y-95223750D01*
X110527000Y-95873000D01*
X110273000Y-95873000D01*
X110273000Y-95223750D01*
X110114250Y-95065000D01*
X109775000Y-95061928D01*
X109650518Y-95074188D01*
X109530820Y-95110498D01*
X109420506Y-95169463D01*
X109400000Y-95186292D01*
X109379494Y-95169463D01*
X109269180Y-95110498D01*
X109149482Y-95074188D01*
X109025000Y-95061928D01*
X108685750Y-95065000D01*
X108527000Y-95223750D01*
X108527000Y-95873000D01*
X108335486Y-95873000D01*
X108335486Y-93623501D01*
X108425518Y-93650812D01*
X108550000Y-93663072D01*
X109514250Y-93660000D01*
X109673000Y-93501250D01*
X109673000Y-92652000D01*
X109927000Y-92652000D01*
X109927000Y-93501250D01*
X110085750Y-93660000D01*
X111050000Y-93663072D01*
X111174482Y-93650812D01*
X111200000Y-93643071D01*
X111225518Y-93650812D01*
X111350000Y-93663072D01*
X112314250Y-93660000D01*
X112473000Y-93501250D01*
X112473000Y-92652000D01*
X109927000Y-92652000D01*
X109673000Y-92652000D01*
X109653000Y-92652000D01*
X109653000Y-92398000D01*
X109673000Y-92398000D01*
X109673000Y-92378000D01*
X109927000Y-92378000D01*
X109927000Y-92398000D01*
X112473000Y-92398000D01*
X112473000Y-92378000D01*
X112727000Y-92378000D01*
X112727000Y-92398000D01*
X112747000Y-92398000D01*
X112747000Y-92652000D01*
X112727000Y-92652000D01*
X112727000Y-93501250D01*
X112885750Y-93660000D01*
X113850000Y-93663072D01*
X113974482Y-93650812D01*
X114094180Y-93614502D01*
X114204494Y-93555537D01*
X114244355Y-93522824D01*
X122055098Y-93522824D01*
X122104666Y-93940451D01*
X122234757Y-94340383D01*
X122392786Y-94636038D01*
X122708347Y-94792048D01*
X124020395Y-93480000D01*
X124379605Y-93480000D01*
X125691653Y-94792048D01*
X126007214Y-94636038D01*
X126198020Y-94261255D01*
X126312044Y-93856449D01*
X126344902Y-93437176D01*
X126295334Y-93019549D01*
X126165243Y-92619617D01*
X126007214Y-92323962D01*
X125691653Y-92167952D01*
X124379605Y-93480000D01*
X124020395Y-93480000D01*
X122708347Y-92167952D01*
X122392786Y-92323962D01*
X122201980Y-92698745D01*
X122087956Y-93103551D01*
X122055098Y-93522824D01*
X114244355Y-93522824D01*
X114301185Y-93476185D01*
X114380537Y-93379494D01*
X114439502Y-93269180D01*
X114475812Y-93149482D01*
X114488072Y-93025000D01*
X114485000Y-92810750D01*
X114411987Y-92737737D01*
X114714250Y-92735000D01*
X114873000Y-92576250D01*
X114873000Y-91727000D01*
X115127000Y-91727000D01*
X115127000Y-92576250D01*
X115127000Y-92576250D01*
G37*
X115127000Y-92576250D02*
X115285750Y-92735000D01*
X115625000Y-92738072D01*
X115749482Y-92725812D01*
X115869180Y-92689502D01*
X115979494Y-92630537D01*
X116000000Y-92613708D01*
X116020506Y-92630537D01*
X116130820Y-92689502D01*
X116250518Y-92725812D01*
X116375000Y-92738072D01*
X116714250Y-92735000D01*
X116873000Y-92576250D01*
X116873000Y-91727000D01*
X117127000Y-91727000D01*
X117127000Y-92576250D01*
X117285750Y-92735000D01*
X117625000Y-92738072D01*
X117749482Y-92725812D01*
X117869180Y-92689502D01*
X117979494Y-92630537D01*
X118076185Y-92551185D01*
X118155537Y-92454494D01*
X118214502Y-92344180D01*
X118250812Y-92224482D01*
X118263072Y-92100000D01*
X118260000Y-91885750D01*
X118101252Y-91727002D01*
X118260000Y-91727002D01*
X118260000Y-91727000D01*
X123017159Y-91727000D01*
X122887952Y-91988347D01*
X124200000Y-93300395D01*
X125512048Y-91988347D01*
X125382841Y-91727000D01*
X126881486Y-91727000D01*
X126881486Y-94861278D01*
X125869765Y-95873000D01*
X114977900Y-95873000D01*
X114977900Y-95703685D01*
X114940320Y-95514757D01*
X114866604Y-95336790D01*
X114759585Y-95176625D01*
X114623375Y-95040415D01*
X114520466Y-94971653D01*
X122887952Y-94971653D01*
X123043962Y-95287214D01*
X123418745Y-95478020D01*
X123823551Y-95592044D01*
X124242824Y-95624902D01*
X124660451Y-95575334D01*
X125060383Y-95445243D01*
X125356038Y-95287214D01*
X125512048Y-94971653D01*
X124200000Y-93659605D01*
X122887952Y-94971653D01*
X114520466Y-94971653D01*
X114463210Y-94933396D01*
X114285243Y-94859680D01*
X114096315Y-94822100D01*
X113903685Y-94822100D01*
X113714757Y-94859680D01*
X113536790Y-94933396D01*
X113376625Y-95040415D01*
X113240415Y-95176625D01*
X113133396Y-95336790D01*
X113059680Y-95514757D01*
X113022100Y-95703685D01*
X113022100Y-95873000D01*
X111660591Y-95873000D01*
X111663072Y-95700000D01*
X111650812Y-95575518D01*
X111614502Y-95455820D01*
X111555537Y-95345506D01*
X111476185Y-95248815D01*
X111379494Y-95169463D01*
X111269180Y-95110498D01*
X111149482Y-95074188D01*
X111025000Y-95061928D01*
X110685750Y-95065000D01*
X110527000Y-95223750D01*
X110527000Y-95873000D01*
X110273000Y-95873000D01*
X110273000Y-95223750D01*
X110114250Y-95065000D01*
X109775000Y-95061928D01*
X109650518Y-95074188D01*
X109530820Y-95110498D01*
X109420506Y-95169463D01*
X109400000Y-95186292D01*
X109379494Y-95169463D01*
X109269180Y-95110498D01*
X109149482Y-95074188D01*
X109025000Y-95061928D01*
X108685750Y-95065000D01*
X108527000Y-95223750D01*
X108527000Y-95873000D01*
X108335486Y-95873000D01*
X108335486Y-93623501D01*
X108425518Y-93650812D01*
X108550000Y-93663072D01*
X109514250Y-93660000D01*
X109673000Y-93501250D01*
X109673000Y-92652000D01*
X109927000Y-92652000D01*
X109927000Y-93501250D01*
X110085750Y-93660000D01*
X111050000Y-93663072D01*
X111174482Y-93650812D01*
X111200000Y-93643071D01*
X111225518Y-93650812D01*
X111350000Y-93663072D01*
X112314250Y-93660000D01*
X112473000Y-93501250D01*
X112473000Y-92652000D01*
X109927000Y-92652000D01*
X109673000Y-92652000D01*
X109653000Y-92652000D01*
X109653000Y-92398000D01*
X109673000Y-92398000D01*
X109673000Y-92378000D01*
X109927000Y-92378000D01*
X109927000Y-92398000D01*
X112473000Y-92398000D01*
X112473000Y-92378000D01*
X112727000Y-92378000D01*
X112727000Y-92398000D01*
X112747000Y-92398000D01*
X112747000Y-92652000D01*
X112727000Y-92652000D01*
X112727000Y-93501250D01*
X112885750Y-93660000D01*
X113850000Y-93663072D01*
X113974482Y-93650812D01*
X114094180Y-93614502D01*
X114204494Y-93555537D01*
X114244355Y-93522824D01*
X122055098Y-93522824D01*
X122104666Y-93940451D01*
X122234757Y-94340383D01*
X122392786Y-94636038D01*
X122708347Y-94792048D01*
X124020395Y-93480000D01*
X124379605Y-93480000D01*
X125691653Y-94792048D01*
X126007214Y-94636038D01*
X126198020Y-94261255D01*
X126312044Y-93856449D01*
X126344902Y-93437176D01*
X126295334Y-93019549D01*
X126165243Y-92619617D01*
X126007214Y-92323962D01*
X125691653Y-92167952D01*
X124379605Y-93480000D01*
X124020395Y-93480000D01*
X122708347Y-92167952D01*
X122392786Y-92323962D01*
X122201980Y-92698745D01*
X122087956Y-93103551D01*
X122055098Y-93522824D01*
X114244355Y-93522824D01*
X114301185Y-93476185D01*
X114380537Y-93379494D01*
X114439502Y-93269180D01*
X114475812Y-93149482D01*
X114488072Y-93025000D01*
X114485000Y-92810750D01*
X114411987Y-92737737D01*
X114714250Y-92735000D01*
X114873000Y-92576250D01*
X114873000Y-91727000D01*
X115127000Y-91727000D01*
X115127000Y-92576250D01*
G36*
X91540595Y-77118750D02*
G01*
X94459405Y-77118750D01*
X94459405Y-75685000D01*
X95073000Y-75685000D01*
X95073000Y-78502676D01*
X94864099Y-78403175D01*
X94716890Y-78358524D01*
X94487000Y-78479845D01*
X94487000Y-79673000D01*
X94507000Y-79673000D01*
X94507000Y-79927000D01*
X94487000Y-79927000D01*
X94487000Y-81120155D01*
X94716890Y-81241476D01*
X94864099Y-81196825D01*
X95073000Y-81097324D01*
X95073000Y-82774651D01*
X95061283Y-82813277D01*
X95042892Y-83000000D01*
X95047500Y-83046785D01*
X95047501Y-84325417D01*
X95000000Y-84383296D01*
X94951185Y-84323815D01*
X94854494Y-84244463D01*
X94744180Y-84185498D01*
X94624482Y-84149188D01*
X94500000Y-84136928D01*
X94462713Y-84137463D01*
X94460000Y-83285750D01*
X94301250Y-83127000D01*
X93452000Y-83127000D01*
X93452000Y-83147000D01*
X93198000Y-83147000D01*
X93198000Y-83127000D01*
X92348750Y-83127000D01*
X92190000Y-83285750D01*
X92186928Y-84250000D01*
X92199188Y-84374482D01*
X92235498Y-84494180D01*
X92294463Y-84604494D01*
X92373815Y-84701185D01*
X92470506Y-84780537D01*
X92580820Y-84839502D01*
X92700518Y-84875812D01*
X92825000Y-84888072D01*
X92862947Y-84887528D01*
X92865000Y-85114250D01*
X93023750Y-85273000D01*
X93873000Y-85273000D01*
X93873000Y-85253000D01*
X94127000Y-85253000D01*
X94127000Y-85273000D01*
X94147000Y-85273000D01*
X94147000Y-85527000D01*
X94127000Y-85527000D01*
X94127000Y-87273000D01*
X94147000Y-87273000D01*
X94147000Y-87527000D01*
X94127000Y-87527000D01*
X94127000Y-88501250D01*
X94285750Y-88660000D01*
X94500000Y-88663072D01*
X94624482Y-88650812D01*
X94744180Y-88614502D01*
X94854494Y-88555537D01*
X94951185Y-88476185D01*
X95000000Y-88416704D01*
X95045827Y-88472543D01*
X93887649Y-89630721D01*
X93858579Y-89654578D01*
X93834722Y-89683648D01*
X93834721Y-89683649D01*
X93763355Y-89770608D01*
X93740784Y-89812836D01*
X93625518Y-89824188D01*
X93505820Y-89860498D01*
X93395506Y-89919463D01*
X93298815Y-89998815D01*
X93219463Y-90095506D01*
X93160498Y-90205820D01*
X93124188Y-90325518D01*
X93111928Y-90450000D01*
X93111928Y-91150000D01*
X93124188Y-91274482D01*
X93160498Y-91394180D01*
X93219463Y-91504494D01*
X93298815Y-91601185D01*
X93395506Y-91680537D01*
X93505820Y-91739502D01*
X93540427Y-91750000D01*
X93505820Y-91760498D01*
X93395506Y-91819463D01*
X93298815Y-91898815D01*
X93219463Y-91995506D01*
X93160498Y-92105820D01*
X93124188Y-92225518D01*
X93111928Y-92350000D01*
X93111928Y-93050000D01*
X93124188Y-93174482D01*
X93160498Y-93294180D01*
X93219463Y-93404494D01*
X93298815Y-93501185D01*
X93395506Y-93580537D01*
X93505820Y-93639502D01*
X93625518Y-93675812D01*
X93663400Y-93679543D01*
X93663401Y-94197498D01*
X93594180Y-94160498D01*
X93474482Y-94124188D01*
X93350000Y-94111928D01*
X92650000Y-94111928D01*
X92525518Y-94124188D01*
X92405820Y-94160498D01*
X92295506Y-94219463D01*
X92198815Y-94298815D01*
X92119463Y-94395506D01*
X92060498Y-94505820D01*
X92050000Y-94540427D01*
X92039502Y-94505820D01*
X91980537Y-94395506D01*
X91901185Y-94298815D01*
X91804494Y-94219463D01*
X91694180Y-94160498D01*
X91574482Y-94124188D01*
X91450000Y-94111928D01*
X91385750Y-94115000D01*
X91227000Y-94273750D01*
X91227000Y-95273000D01*
X91247000Y-95273000D01*
X91247000Y-95527000D01*
X91227000Y-95527000D01*
X91227000Y-95547000D01*
X90973000Y-95547000D01*
X90973000Y-95527000D01*
X90273750Y-95527000D01*
X90115000Y-95685750D01*
X90111928Y-96050000D01*
X90124188Y-96174482D01*
X90160498Y-96294180D01*
X90219463Y-96404494D01*
X90298815Y-96501185D01*
X90395506Y-96580537D01*
X90505820Y-96639502D01*
X90625518Y-96675812D01*
X90667353Y-96679932D01*
X90645498Y-96720820D01*
X90609188Y-96840518D01*
X90596928Y-96965000D01*
X90600000Y-97314250D01*
X90758750Y-97473000D01*
X91593000Y-97473000D01*
X91593000Y-97453000D01*
X91847000Y-97453000D01*
X91847000Y-97473000D01*
X91867000Y-97473000D01*
X91867000Y-97727000D01*
X91847000Y-97727000D01*
X91847000Y-97747000D01*
X91593000Y-97747000D01*
X91593000Y-97727000D01*
X90758750Y-97727000D01*
X90600000Y-97885750D01*
X90596928Y-98235000D01*
X90600671Y-98273000D01*
X80685000Y-98273000D01*
X80685000Y-95070714D01*
X84030000Y-95070714D01*
X84030000Y-94750000D01*
X90111928Y-94750000D01*
X90115000Y-95114250D01*
X90273750Y-95273000D01*
X90973000Y-95273000D01*
X90973000Y-94273750D01*
X90814250Y-94115000D01*
X90750000Y-94111928D01*
X90625518Y-94124188D01*
X90505820Y-94160498D01*
X90395506Y-94219463D01*
X90298815Y-94298815D01*
X90219463Y-94395506D01*
X90160498Y-94505820D01*
X90124188Y-94625518D01*
X90111928Y-94750000D01*
X84030000Y-94750000D01*
X84030000Y-88929285D01*
X80685000Y-88929285D01*
X80685000Y-87850000D01*
X83111928Y-87850000D01*
X83124188Y-87974482D01*
X83160498Y-88094180D01*
X83219463Y-88204494D01*
X83298815Y-88301185D01*
X83395506Y-88380537D01*
X83505820Y-88439502D01*
X83625518Y-88475812D01*
X83750000Y-88488072D01*
X84314250Y-88485000D01*
X84473000Y-88326250D01*
X84473000Y-87127000D01*
X84727000Y-87127000D01*
X84727000Y-88326250D01*
X84885750Y-88485000D01*
X85450000Y-88488072D01*
X85574482Y-88475812D01*
X85694180Y-88439502D01*
X85804494Y-88380537D01*
X85901185Y-88301185D01*
X85980537Y-88204494D01*
X86039502Y-88094180D01*
X86063966Y-88013534D01*
X86139731Y-88097588D01*
X86373080Y-88271641D01*
X86635901Y-88396825D01*
X86783110Y-88441476D01*
X87013000Y-88320155D01*
X87013000Y-87127000D01*
X87267000Y-87127000D01*
X87267000Y-88320155D01*
X87496890Y-88441476D01*
X87644099Y-88396825D01*
X87906920Y-88271641D01*
X88140269Y-88097588D01*
X88205698Y-88025000D01*
X92861928Y-88025000D01*
X92874188Y-88149482D01*
X92910498Y-88269180D01*
X92969463Y-88379494D01*
X93048815Y-88476185D01*
X93145506Y-88555537D01*
X93255820Y-88614502D01*
X93375518Y-88650812D01*
X93500000Y-88663072D01*
X93714250Y-88660000D01*
X93873000Y-88501250D01*
X93873000Y-87527000D01*
X93023750Y-87527000D01*
X92865000Y-87685750D01*
X92861928Y-88025000D01*
X88205698Y-88025000D01*
X88335178Y-87881355D01*
X88484157Y-87631252D01*
X88581481Y-87356891D01*
X88460814Y-87127000D01*
X87267000Y-87127000D01*
X87013000Y-87127000D01*
X84727000Y-87127000D01*
X84473000Y-87127000D01*
X83273750Y-87127000D01*
X83115000Y-87285750D01*
X83111928Y-87850000D01*
X80685000Y-87850000D01*
X80685000Y-86150000D01*
X83111928Y-86150000D01*
X83115000Y-86714250D01*
X83273750Y-86873000D01*
X84473000Y-86873000D01*
X84473000Y-85673750D01*
X84727000Y-85673750D01*
X84727000Y-86873000D01*
X87013000Y-86873000D01*
X87013000Y-85679845D01*
X87267000Y-85679845D01*
X87267000Y-86873000D01*
X88460814Y-86873000D01*
X88581481Y-86643109D01*
X88484157Y-86368748D01*
X88335178Y-86118645D01*
X88250768Y-86025000D01*
X92861928Y-86025000D01*
X92874188Y-86149482D01*
X92910498Y-86269180D01*
X92969463Y-86379494D01*
X92986292Y-86400000D01*
X92969463Y-86420506D01*
X92910498Y-86530820D01*
X92874188Y-86650518D01*
X92861928Y-86775000D01*
X92865000Y-87114250D01*
X93023750Y-87273000D01*
X93873000Y-87273000D01*
X93873000Y-85527000D01*
X93023750Y-85527000D01*
X92865000Y-85685750D01*
X92861928Y-86025000D01*
X88250768Y-86025000D01*
X88140269Y-85902412D01*
X87906920Y-85728359D01*
X87644099Y-85603175D01*
X87496890Y-85558524D01*
X87267000Y-85679845D01*
X87013000Y-85679845D01*
X86783110Y-85558524D01*
X86635901Y-85603175D01*
X86373080Y-85728359D01*
X86139731Y-85902412D01*
X86063966Y-85986466D01*
X86039502Y-85905820D01*
X85980537Y-85795506D01*
X85901185Y-85698815D01*
X85804494Y-85619463D01*
X85694180Y-85560498D01*
X85574482Y-85524188D01*
X85450000Y-85511928D01*
X84885750Y-85515000D01*
X84727000Y-85673750D01*
X84473000Y-85673750D01*
X84314250Y-85515000D01*
X83750000Y-85511928D01*
X83625518Y-85524188D01*
X83505820Y-85560498D01*
X83395506Y-85619463D01*
X83298815Y-85698815D01*
X83219463Y-85795506D01*
X83160498Y-85905820D01*
X83124188Y-86025518D01*
X83111928Y-86150000D01*
X80685000Y-86150000D01*
X80685000Y-79979872D01*
X82965000Y-79979872D01*
X82965000Y-80420128D01*
X83050890Y-80851925D01*
X83219369Y-81258669D01*
X83463962Y-81624729D01*
X83775271Y-81936038D01*
X84141331Y-82180631D01*
X84548075Y-82349110D01*
X84979872Y-82435000D01*
X85420128Y-82435000D01*
X85851925Y-82349110D01*
X86258669Y-82180631D01*
X86624729Y-81936038D01*
X86810767Y-81750000D01*
X92186928Y-81750000D01*
X92190000Y-82714250D01*
X92348750Y-82873000D01*
X93198000Y-82873000D01*
X93198000Y-81273750D01*
X93039250Y-81115000D01*
X92825000Y-81111928D01*
X92700518Y-81124188D01*
X92580820Y-81160498D01*
X92470506Y-81219463D01*
X92373815Y-81298815D01*
X92294463Y-81395506D01*
X92235498Y-81505820D01*
X92199188Y-81625518D01*
X92186928Y-81750000D01*
X86810767Y-81750000D01*
X86936038Y-81624729D01*
X87180631Y-81258669D01*
X87349110Y-80851925D01*
X87435000Y-80420128D01*
X87435000Y-80156891D01*
X90378519Y-80156891D01*
X90475843Y-80431252D01*
X90624822Y-80681355D01*
X90819731Y-80897588D01*
X91053080Y-81071641D01*
X91315901Y-81196825D01*
X91463110Y-81241476D01*
X91693000Y-81120155D01*
X91693000Y-79927000D01*
X91947000Y-79927000D01*
X91947000Y-81120155D01*
X92176890Y-81241476D01*
X92324099Y-81196825D01*
X92586920Y-81071641D01*
X92820269Y-80897588D01*
X93015178Y-80681355D01*
X93090000Y-80555745D01*
X93164822Y-80681355D01*
X93359731Y-80897588D01*
X93593080Y-81071641D01*
X93681967Y-81113979D01*
X93610750Y-81115000D01*
X93452000Y-81273750D01*
X93452000Y-82873000D01*
X94301250Y-82873000D01*
X94460000Y-82714250D01*
X94463072Y-81750000D01*
X94450812Y-81625518D01*
X94414502Y-81505820D01*
X94355537Y-81395506D01*
X94276185Y-81298815D01*
X94179494Y-81219463D01*
X94112588Y-81183701D01*
X94233000Y-81120155D01*
X94233000Y-79927000D01*
X91947000Y-79927000D01*
X91693000Y-79927000D01*
X90499186Y-79927000D01*
X90378519Y-80156891D01*
X87435000Y-80156891D01*
X87435000Y-79979872D01*
X87349110Y-79548075D01*
X87305632Y-79443109D01*
X90378519Y-79443109D01*
X90499186Y-79673000D01*
X91693000Y-79673000D01*
X91693000Y-78479845D01*
X91947000Y-78479845D01*
X91947000Y-79673000D01*
X94233000Y-79673000D01*
X94233000Y-78479845D01*
X94003110Y-78358524D01*
X93855901Y-78403175D01*
X93593080Y-78528359D01*
X93359731Y-78702412D01*
X93164822Y-78918645D01*
X93090000Y-79044255D01*
X93015178Y-78918645D01*
X92820269Y-78702412D01*
X92586920Y-78528359D01*
X92324099Y-78403175D01*
X92176890Y-78358524D01*
X91947000Y-78479845D01*
X91693000Y-78479845D01*
X91463110Y-78358524D01*
X91315901Y-78403175D01*
X91053080Y-78528359D01*
X90819731Y-78702412D01*
X90624822Y-78918645D01*
X90475843Y-79168748D01*
X90378519Y-79443109D01*
X87305632Y-79443109D01*
X87180631Y-79141331D01*
X86936038Y-78775271D01*
X86624729Y-78463962D01*
X86258669Y-78219369D01*
X85851925Y-78050890D01*
X85420128Y-77965000D01*
X84979872Y-77965000D01*
X84548075Y-78050890D01*
X84141331Y-78219369D01*
X83775271Y-78463962D01*
X83463962Y-78775271D01*
X83219369Y-79141331D01*
X83050890Y-79548075D01*
X82965000Y-79979872D01*
X80685000Y-79979872D01*
X80685000Y-75685000D01*
X91540595Y-75685000D01*
X91540595Y-77118750D01*
X91540595Y-77118750D01*
G37*
X91540595Y-77118750D02*
X94459405Y-77118750D01*
X94459405Y-75685000D01*
X95073000Y-75685000D01*
X95073000Y-78502676D01*
X94864099Y-78403175D01*
X94716890Y-78358524D01*
X94487000Y-78479845D01*
X94487000Y-79673000D01*
X94507000Y-79673000D01*
X94507000Y-79927000D01*
X94487000Y-79927000D01*
X94487000Y-81120155D01*
X94716890Y-81241476D01*
X94864099Y-81196825D01*
X95073000Y-81097324D01*
X95073000Y-82774651D01*
X95061283Y-82813277D01*
X95042892Y-83000000D01*
X95047500Y-83046785D01*
X95047501Y-84325417D01*
X95000000Y-84383296D01*
X94951185Y-84323815D01*
X94854494Y-84244463D01*
X94744180Y-84185498D01*
X94624482Y-84149188D01*
X94500000Y-84136928D01*
X94462713Y-84137463D01*
X94460000Y-83285750D01*
X94301250Y-83127000D01*
X93452000Y-83127000D01*
X93452000Y-83147000D01*
X93198000Y-83147000D01*
X93198000Y-83127000D01*
X92348750Y-83127000D01*
X92190000Y-83285750D01*
X92186928Y-84250000D01*
X92199188Y-84374482D01*
X92235498Y-84494180D01*
X92294463Y-84604494D01*
X92373815Y-84701185D01*
X92470506Y-84780537D01*
X92580820Y-84839502D01*
X92700518Y-84875812D01*
X92825000Y-84888072D01*
X92862947Y-84887528D01*
X92865000Y-85114250D01*
X93023750Y-85273000D01*
X93873000Y-85273000D01*
X93873000Y-85253000D01*
X94127000Y-85253000D01*
X94127000Y-85273000D01*
X94147000Y-85273000D01*
X94147000Y-85527000D01*
X94127000Y-85527000D01*
X94127000Y-87273000D01*
X94147000Y-87273000D01*
X94147000Y-87527000D01*
X94127000Y-87527000D01*
X94127000Y-88501250D01*
X94285750Y-88660000D01*
X94500000Y-88663072D01*
X94624482Y-88650812D01*
X94744180Y-88614502D01*
X94854494Y-88555537D01*
X94951185Y-88476185D01*
X95000000Y-88416704D01*
X95045827Y-88472543D01*
X93887649Y-89630721D01*
X93858579Y-89654578D01*
X93834722Y-89683648D01*
X93834721Y-89683649D01*
X93763355Y-89770608D01*
X93740784Y-89812836D01*
X93625518Y-89824188D01*
X93505820Y-89860498D01*
X93395506Y-89919463D01*
X93298815Y-89998815D01*
X93219463Y-90095506D01*
X93160498Y-90205820D01*
X93124188Y-90325518D01*
X93111928Y-90450000D01*
X93111928Y-91150000D01*
X93124188Y-91274482D01*
X93160498Y-91394180D01*
X93219463Y-91504494D01*
X93298815Y-91601185D01*
X93395506Y-91680537D01*
X93505820Y-91739502D01*
X93540427Y-91750000D01*
X93505820Y-91760498D01*
X93395506Y-91819463D01*
X93298815Y-91898815D01*
X93219463Y-91995506D01*
X93160498Y-92105820D01*
X93124188Y-92225518D01*
X93111928Y-92350000D01*
X93111928Y-93050000D01*
X93124188Y-93174482D01*
X93160498Y-93294180D01*
X93219463Y-93404494D01*
X93298815Y-93501185D01*
X93395506Y-93580537D01*
X93505820Y-93639502D01*
X93625518Y-93675812D01*
X93663400Y-93679543D01*
X93663401Y-94197498D01*
X93594180Y-94160498D01*
X93474482Y-94124188D01*
X93350000Y-94111928D01*
X92650000Y-94111928D01*
X92525518Y-94124188D01*
X92405820Y-94160498D01*
X92295506Y-94219463D01*
X92198815Y-94298815D01*
X92119463Y-94395506D01*
X92060498Y-94505820D01*
X92050000Y-94540427D01*
X92039502Y-94505820D01*
X91980537Y-94395506D01*
X91901185Y-94298815D01*
X91804494Y-94219463D01*
X91694180Y-94160498D01*
X91574482Y-94124188D01*
X91450000Y-94111928D01*
X91385750Y-94115000D01*
X91227000Y-94273750D01*
X91227000Y-95273000D01*
X91247000Y-95273000D01*
X91247000Y-95527000D01*
X91227000Y-95527000D01*
X91227000Y-95547000D01*
X90973000Y-95547000D01*
X90973000Y-95527000D01*
X90273750Y-95527000D01*
X90115000Y-95685750D01*
X90111928Y-96050000D01*
X90124188Y-96174482D01*
X90160498Y-96294180D01*
X90219463Y-96404494D01*
X90298815Y-96501185D01*
X90395506Y-96580537D01*
X90505820Y-96639502D01*
X90625518Y-96675812D01*
X90667353Y-96679932D01*
X90645498Y-96720820D01*
X90609188Y-96840518D01*
X90596928Y-96965000D01*
X90600000Y-97314250D01*
X90758750Y-97473000D01*
X91593000Y-97473000D01*
X91593000Y-97453000D01*
X91847000Y-97453000D01*
X91847000Y-97473000D01*
X91867000Y-97473000D01*
X91867000Y-97727000D01*
X91847000Y-97727000D01*
X91847000Y-97747000D01*
X91593000Y-97747000D01*
X91593000Y-97727000D01*
X90758750Y-97727000D01*
X90600000Y-97885750D01*
X90596928Y-98235000D01*
X90600671Y-98273000D01*
X80685000Y-98273000D01*
X80685000Y-95070714D01*
X84030000Y-95070714D01*
X84030000Y-94750000D01*
X90111928Y-94750000D01*
X90115000Y-95114250D01*
X90273750Y-95273000D01*
X90973000Y-95273000D01*
X90973000Y-94273750D01*
X90814250Y-94115000D01*
X90750000Y-94111928D01*
X90625518Y-94124188D01*
X90505820Y-94160498D01*
X90395506Y-94219463D01*
X90298815Y-94298815D01*
X90219463Y-94395506D01*
X90160498Y-94505820D01*
X90124188Y-94625518D01*
X90111928Y-94750000D01*
X84030000Y-94750000D01*
X84030000Y-88929285D01*
X80685000Y-88929285D01*
X80685000Y-87850000D01*
X83111928Y-87850000D01*
X83124188Y-87974482D01*
X83160498Y-88094180D01*
X83219463Y-88204494D01*
X83298815Y-88301185D01*
X83395506Y-88380537D01*
X83505820Y-88439502D01*
X83625518Y-88475812D01*
X83750000Y-88488072D01*
X84314250Y-88485000D01*
X84473000Y-88326250D01*
X84473000Y-87127000D01*
X84727000Y-87127000D01*
X84727000Y-88326250D01*
X84885750Y-88485000D01*
X85450000Y-88488072D01*
X85574482Y-88475812D01*
X85694180Y-88439502D01*
X85804494Y-88380537D01*
X85901185Y-88301185D01*
X85980537Y-88204494D01*
X86039502Y-88094180D01*
X86063966Y-88013534D01*
X86139731Y-88097588D01*
X86373080Y-88271641D01*
X86635901Y-88396825D01*
X86783110Y-88441476D01*
X87013000Y-88320155D01*
X87013000Y-87127000D01*
X87267000Y-87127000D01*
X87267000Y-88320155D01*
X87496890Y-88441476D01*
X87644099Y-88396825D01*
X87906920Y-88271641D01*
X88140269Y-88097588D01*
X88205698Y-88025000D01*
X92861928Y-88025000D01*
X92874188Y-88149482D01*
X92910498Y-88269180D01*
X92969463Y-88379494D01*
X93048815Y-88476185D01*
X93145506Y-88555537D01*
X93255820Y-88614502D01*
X93375518Y-88650812D01*
X93500000Y-88663072D01*
X93714250Y-88660000D01*
X93873000Y-88501250D01*
X93873000Y-87527000D01*
X93023750Y-87527000D01*
X92865000Y-87685750D01*
X92861928Y-88025000D01*
X88205698Y-88025000D01*
X88335178Y-87881355D01*
X88484157Y-87631252D01*
X88581481Y-87356891D01*
X88460814Y-87127000D01*
X87267000Y-87127000D01*
X87013000Y-87127000D01*
X84727000Y-87127000D01*
X84473000Y-87127000D01*
X83273750Y-87127000D01*
X83115000Y-87285750D01*
X83111928Y-87850000D01*
X80685000Y-87850000D01*
X80685000Y-86150000D01*
X83111928Y-86150000D01*
X83115000Y-86714250D01*
X83273750Y-86873000D01*
X84473000Y-86873000D01*
X84473000Y-85673750D01*
X84727000Y-85673750D01*
X84727000Y-86873000D01*
X87013000Y-86873000D01*
X87013000Y-85679845D01*
X87267000Y-85679845D01*
X87267000Y-86873000D01*
X88460814Y-86873000D01*
X88581481Y-86643109D01*
X88484157Y-86368748D01*
X88335178Y-86118645D01*
X88250768Y-86025000D01*
X92861928Y-86025000D01*
X92874188Y-86149482D01*
X92910498Y-86269180D01*
X92969463Y-86379494D01*
X92986292Y-86400000D01*
X92969463Y-86420506D01*
X92910498Y-86530820D01*
X92874188Y-86650518D01*
X92861928Y-86775000D01*
X92865000Y-87114250D01*
X93023750Y-87273000D01*
X93873000Y-87273000D01*
X93873000Y-85527000D01*
X93023750Y-85527000D01*
X92865000Y-85685750D01*
X92861928Y-86025000D01*
X88250768Y-86025000D01*
X88140269Y-85902412D01*
X87906920Y-85728359D01*
X87644099Y-85603175D01*
X87496890Y-85558524D01*
X87267000Y-85679845D01*
X87013000Y-85679845D01*
X86783110Y-85558524D01*
X86635901Y-85603175D01*
X86373080Y-85728359D01*
X86139731Y-85902412D01*
X86063966Y-85986466D01*
X86039502Y-85905820D01*
X85980537Y-85795506D01*
X85901185Y-85698815D01*
X85804494Y-85619463D01*
X85694180Y-85560498D01*
X85574482Y-85524188D01*
X85450000Y-85511928D01*
X84885750Y-85515000D01*
X84727000Y-85673750D01*
X84473000Y-85673750D01*
X84314250Y-85515000D01*
X83750000Y-85511928D01*
X83625518Y-85524188D01*
X83505820Y-85560498D01*
X83395506Y-85619463D01*
X83298815Y-85698815D01*
X83219463Y-85795506D01*
X83160498Y-85905820D01*
X83124188Y-86025518D01*
X83111928Y-86150000D01*
X80685000Y-86150000D01*
X80685000Y-79979872D01*
X82965000Y-79979872D01*
X82965000Y-80420128D01*
X83050890Y-80851925D01*
X83219369Y-81258669D01*
X83463962Y-81624729D01*
X83775271Y-81936038D01*
X84141331Y-82180631D01*
X84548075Y-82349110D01*
X84979872Y-82435000D01*
X85420128Y-82435000D01*
X85851925Y-82349110D01*
X86258669Y-82180631D01*
X86624729Y-81936038D01*
X86810767Y-81750000D01*
X92186928Y-81750000D01*
X92190000Y-82714250D01*
X92348750Y-82873000D01*
X93198000Y-82873000D01*
X93198000Y-81273750D01*
X93039250Y-81115000D01*
X92825000Y-81111928D01*
X92700518Y-81124188D01*
X92580820Y-81160498D01*
X92470506Y-81219463D01*
X92373815Y-81298815D01*
X92294463Y-81395506D01*
X92235498Y-81505820D01*
X92199188Y-81625518D01*
X92186928Y-81750000D01*
X86810767Y-81750000D01*
X86936038Y-81624729D01*
X87180631Y-81258669D01*
X87349110Y-80851925D01*
X87435000Y-80420128D01*
X87435000Y-80156891D01*
X90378519Y-80156891D01*
X90475843Y-80431252D01*
X90624822Y-80681355D01*
X90819731Y-80897588D01*
X91053080Y-81071641D01*
X91315901Y-81196825D01*
X91463110Y-81241476D01*
X91693000Y-81120155D01*
X91693000Y-79927000D01*
X91947000Y-79927000D01*
X91947000Y-81120155D01*
X92176890Y-81241476D01*
X92324099Y-81196825D01*
X92586920Y-81071641D01*
X92820269Y-80897588D01*
X93015178Y-80681355D01*
X93090000Y-80555745D01*
X93164822Y-80681355D01*
X93359731Y-80897588D01*
X93593080Y-81071641D01*
X93681967Y-81113979D01*
X93610750Y-81115000D01*
X93452000Y-81273750D01*
X93452000Y-82873000D01*
X94301250Y-82873000D01*
X94460000Y-82714250D01*
X94463072Y-81750000D01*
X94450812Y-81625518D01*
X94414502Y-81505820D01*
X94355537Y-81395506D01*
X94276185Y-81298815D01*
X94179494Y-81219463D01*
X94112588Y-81183701D01*
X94233000Y-81120155D01*
X94233000Y-79927000D01*
X91947000Y-79927000D01*
X91693000Y-79927000D01*
X90499186Y-79927000D01*
X90378519Y-80156891D01*
X87435000Y-80156891D01*
X87435000Y-79979872D01*
X87349110Y-79548075D01*
X87305632Y-79443109D01*
X90378519Y-79443109D01*
X90499186Y-79673000D01*
X91693000Y-79673000D01*
X91693000Y-78479845D01*
X91947000Y-78479845D01*
X91947000Y-79673000D01*
X94233000Y-79673000D01*
X94233000Y-78479845D01*
X94003110Y-78358524D01*
X93855901Y-78403175D01*
X93593080Y-78528359D01*
X93359731Y-78702412D01*
X93164822Y-78918645D01*
X93090000Y-79044255D01*
X93015178Y-78918645D01*
X92820269Y-78702412D01*
X92586920Y-78528359D01*
X92324099Y-78403175D01*
X92176890Y-78358524D01*
X91947000Y-78479845D01*
X91693000Y-78479845D01*
X91463110Y-78358524D01*
X91315901Y-78403175D01*
X91053080Y-78528359D01*
X90819731Y-78702412D01*
X90624822Y-78918645D01*
X90475843Y-79168748D01*
X90378519Y-79443109D01*
X87305632Y-79443109D01*
X87180631Y-79141331D01*
X86936038Y-78775271D01*
X86624729Y-78463962D01*
X86258669Y-78219369D01*
X85851925Y-78050890D01*
X85420128Y-77965000D01*
X84979872Y-77965000D01*
X84548075Y-78050890D01*
X84141331Y-78219369D01*
X83775271Y-78463962D01*
X83463962Y-78775271D01*
X83219369Y-79141331D01*
X83050890Y-79548075D01*
X82965000Y-79979872D01*
X80685000Y-79979872D01*
X80685000Y-75685000D01*
X91540595Y-75685000D01*
X91540595Y-77118750D01*
M02*
