M48
; DRILL file {KiCad (5.1.4)-1} date 8/25/2019 9:14:02 PM
; FORMAT={3:3/ absolute / metric / suppress leading zeros}
; #@! TF.CreationDate,2019-08-25T21:14:02+02:00
; #@! TF.GenerationSoftware,Kicad,Pcbnew,(5.1.4)-1
FMAT,2
METRIC,TZ
T1C0.250
T2C0.330
T3C1.000
T4C1.520
T5C3.200
%
G90
G05
T1
X100538Y-94538
X100538Y-95238
X100538Y-95938
X100538Y-96637
X100538Y-97337
X101238Y-94538
X101238Y-95238
X101238Y-95938
X101238Y-96637
X101238Y-97337
X101938Y-94538
X101938Y-95238
X101938Y-95938
X101938Y-96637
X101938Y-97337
X102638Y-94538
X102638Y-95238
X102638Y-95938
X102638Y-96637
X102638Y-97337
X103338Y-94538
X103338Y-95238
X103338Y-95938
X103338Y-96637
X103338Y-97337
X92300Y-108800
X92300Y-109300
X92300Y-109800
X92300Y-110300
X92800Y-108800
X92800Y-109300
X92800Y-109800
X92800Y-110300
X93300Y-108800
X93300Y-109300
X93300Y-109800
X93300Y-110300
X93800Y-108800
X93800Y-109300
X93800Y-109800
X93800Y-110300
X96100Y-108800
X96100Y-109300
X96100Y-109800
X96100Y-110300
X96600Y-108800
X96600Y-109300
X96600Y-109800
X96600Y-110300
X97100Y-108800
X97100Y-109300
X97100Y-109800
X97100Y-110300
X97600Y-108800
X97600Y-109300
X97600Y-109800
X97600Y-110300
X92300Y-103750
X92300Y-104250
X92300Y-104750
X92300Y-105250
X92800Y-103750
X92800Y-104250
X92800Y-104750
X92800Y-105250
X93300Y-103750
X93300Y-104250
X93300Y-104750
X93300Y-105250
X93800Y-103750
X93800Y-104250
X93800Y-104750
X93800Y-105250
X96100Y-103750
X96100Y-104250
X96100Y-104750
X96100Y-105250
X96600Y-103750
X96600Y-104250
X96600Y-104750
X96600Y-105250
X97100Y-103750
X97100Y-104250
X97100Y-104750
X97100Y-105250
X97600Y-103750
X97600Y-104250
X97600Y-104750
X97600Y-105250
X99050Y-103750
X99050Y-104250
X99050Y-104750
X99050Y-105250
X99550Y-103750
X99550Y-104250
X99550Y-104750
X99550Y-105250
X100050Y-103750
X100050Y-104250
X100050Y-104750
X100050Y-105250
X100550Y-103750
X100550Y-104250
X100550Y-104750
X100550Y-105250
X102850Y-103750
X102850Y-104250
X102850Y-104750
X102850Y-105250
X103350Y-103750
X103350Y-104250
X103350Y-104750
X103350Y-105250
X103850Y-103750
X103850Y-104250
X103850Y-104750
X103850Y-105250
X104350Y-103750
X104350Y-104250
X104350Y-104750
X104350Y-105250
X99050Y-113700
X99050Y-114200
X99050Y-114700
X99050Y-115200
X99550Y-113700
X99550Y-114200
X99550Y-114700
X99550Y-115200
X100050Y-113700
X100050Y-114200
X100050Y-114700
X100050Y-115200
X100550Y-113700
X100550Y-114200
X100550Y-114700
X100550Y-115200
X102850Y-113700
X102850Y-114200
X102850Y-114700
X102850Y-115200
X103350Y-113700
X103350Y-114200
X103350Y-114700
X103350Y-115200
X103850Y-113700
X103850Y-114200
X103850Y-114700
X103850Y-115200
X104350Y-113700
X104350Y-114200
X104350Y-114700
X104350Y-115200
X92300Y-113700
X92300Y-114200
X92300Y-114700
X92300Y-115200
X92800Y-113700
X92800Y-114200
X92800Y-114700
X92800Y-115200
X93300Y-113700
X93300Y-114200
X93300Y-114700
X93300Y-115200
X93800Y-113700
X93800Y-114200
X93800Y-114700
X93800Y-115200
X96100Y-113700
X96100Y-114200
X96100Y-114700
X96100Y-115200
X96600Y-113700
X96600Y-114200
X96600Y-114700
X96600Y-115200
X97100Y-113700
X97100Y-114200
X97100Y-114700
X97100Y-115200
X97600Y-113700
X97600Y-114200
X97600Y-114700
X97600Y-115200
X105800Y-108800
X105800Y-109300
X105800Y-109800
X105800Y-110300
X106300Y-108800
X106300Y-109300
X106300Y-109800
X106300Y-110300
X106800Y-108800
X106800Y-109300
X106800Y-109800
X106800Y-110300
X107300Y-108800
X107300Y-109300
X107300Y-109800
X107300Y-110300
X109600Y-108800
X109600Y-109300
X109600Y-109800
X109600Y-110300
X110100Y-108800
X110100Y-109300
X110100Y-109800
X110100Y-110300
X110600Y-108800
X110600Y-109300
X110600Y-109800
X110600Y-110300
X111100Y-108800
X111100Y-109300
X111100Y-109800
X111100Y-110300
X105800Y-113700
X105800Y-114200
X105800Y-114700
X105800Y-115200
X106300Y-113700
X106300Y-114200
X106300Y-114700
X106300Y-115200
X106800Y-113700
X106800Y-114200
X106800Y-114700
X106800Y-115200
X107300Y-113700
X107300Y-114200
X107300Y-114700
X107300Y-115200
X109600Y-113700
X109600Y-114200
X109600Y-114700
X109600Y-115200
X110100Y-113700
X110100Y-114200
X110100Y-114700
X110100Y-115200
X110600Y-113700
X110600Y-114200
X110600Y-114700
X110600Y-115200
X111100Y-113700
X111100Y-114200
X111100Y-114700
X111100Y-115200
X99050Y-108800
X99050Y-109300
X99050Y-109800
X99050Y-110300
X99550Y-108800
X99550Y-109300
X99550Y-109800
X99550Y-110300
X100050Y-108800
X100050Y-109300
X100050Y-109800
X100050Y-110300
X100550Y-108800
X100550Y-109300
X100550Y-109800
X100550Y-110300
X102850Y-108800
X102850Y-109300
X102850Y-109800
X102850Y-110300
X103350Y-108800
X103350Y-109300
X103350Y-109800
X103350Y-110300
X103850Y-108800
X103850Y-109300
X103850Y-109800
X103850Y-110300
X104350Y-108800
X104350Y-109300
X104350Y-109800
X104350Y-110300
X105800Y-103750
X105800Y-104250
X105800Y-104750
X105800Y-105250
X106300Y-103750
X106300Y-104250
X106300Y-104750
X106300Y-105250
X106800Y-103750
X106800Y-104250
X106800Y-104750
X106800Y-105250
X107300Y-103750
X107300Y-104250
X107300Y-104750
X107300Y-105250
X109600Y-103750
X109600Y-104250
X109600Y-104750
X109600Y-105250
X110100Y-103750
X110100Y-104250
X110100Y-104750
X110100Y-105250
X110600Y-103750
X110600Y-104250
X110600Y-104750
X110600Y-105250
X111100Y-103750
X111100Y-104250
X111100Y-104750
X111100Y-105250
T2
X90600Y-118000
X91600Y-118000
X92600Y-118000
X93200Y-102200
X93600Y-118000
X94600Y-96800
X94600Y-118000
X95600Y-118000
X96000Y-95400
X96600Y-118000
X97600Y-118000
X98400Y-95489
X98400Y-98000
X98600Y-118000
X99600Y-102200
X99600Y-118000
X100600Y-118000
X101600Y-118000
X102600Y-118000
X103600Y-118000
X104081Y-99502
X104600Y-118000
X105600Y-118000
X105819Y-95968
X106600Y-118000
X107600Y-118000
X108600Y-118000
X108800Y-82400
X109600Y-118000
X110600Y-118000
X111600Y-118000
X112600Y-118000
X113600Y-118000
X113800Y-85200
X114000Y-95800
X114200Y-102000
T3
X84600Y-87000
X87140Y-87000
X91820Y-79800
X94360Y-79800
X96900Y-79800
X99440Y-79800
X101980Y-79800
X104520Y-79800
X107060Y-79800
X109600Y-79800
X112140Y-79800
X114680Y-79800
X119800Y-79060
X119800Y-81600
T4
X124200Y-88400
X124200Y-93480
T5
X124800Y-119800
X85200Y-80200
X85200Y-119800
X124800Y-80200
T0
M30
